<?xml version="1.0" encoding="utf-8"?>
<!-- Generator: Adobe Illustrator 24.3.0, SVG Export Plug-In . SVG Version: 6.00 Build 0)  -->
<svg version="1.1" id="Livello_1" xmlns="http://www.w3.org/2000/svg" xmlns:xlink="http://www.w3.org/1999/xlink" x="0px" y="0px"
	 viewBox="0 0 398.9 398.9" style="enable-background:new 0 0 398.9 398.9;" xml:space="preserve">
<style type="text/css">
	.st0{fill:#62A2E5;}
	.st1{fill:#296DDE;}
	.st2{fill:#CDDBF9;}
	.st3{fill:#F3F6FF;}
	.st4{fill:#3C4A83;}
	.st5{fill:#48588B;}
	.st6{fill:#EA0016;}
	.st7{fill:#FF641A;}
</style>
<g>
	<path class="st0" d="M147.9,291.5l148.9-148.9c24.3,9.5,53.1,4.5,72.8-15.2c19.7-19.7,24.7-48.4,15.2-72.8l-34.4,34.4L320.1,81
		L312,50.7l34.4-34.4c-24.4-9.5-53.1-4.5-72.8,15.2c-19.7,19.7-24.7,48.4-15.2,72.8L109.5,253.2c-26.2-11-57.6-5.9-78.9,15.4
		c-28.1,28.1-28.1,73.7,0,101.9c28.1,28.1,73.7,28.1,101.9,0C153.8,349.1,158.9,317.7,147.9,291.5L147.9,291.5z M62.3,338.7
		c-10.6-10.6-10.6-27.8,0-38.4c10.6-10.6,27.8-10.6,38.4,0s10.6,27.8,0,38.4C90.1,349.3,72.9,349.3,62.3,338.7z"/>
	<path class="st1" d="M132.5,370.5c-28.1,28.1-73.7,28.1-101.9,0l31.7-31.7c10.6,10.6,27.8,10.6,38.4,0c10.6-10.6,10.6-27.8,0-38.4
		L320.1,81l30.3,8.1l34.4-34.4c9.5,24.4,4.5,53.1-15.2,72.8c-19.7,19.7-48.4,24.7-72.8,15.2L147.9,291.5
		C158.9,317.7,153.8,349.1,132.5,370.5L132.5,370.5z"/>
	<path class="st2" d="M285.7,272.2L80.9,67.3L95,53.2L42.3,11.7L9.5,44.5L51,97.1L65.1,83L270,287.9L285.7,272.2z"/>
	<path class="st3" d="M277.9,280l-252-252L9.5,44.5L51,97.1L65.1,83L270,287.9L277.9,280z"/>
	<path class="st4" d="M235.4,291.4l38.4,38.4l16.7-0.2l37.2-37.2l0-16.4l-38.4-38.4L235.4,291.4z"/>
	<path class="st5" d="M235.4,291.4l38.4,38.4l16.7-0.2l18.5-18.5l-46.6-46.6L235.4,291.4z"/>
	<path class="st6" d="M273.8,329.7l50.7,50.7c7.4,7.4,17.2,11.1,26.9,11.1c9.7,0,19.5-3.7,26.9-11.1c14.9-14.9,14.9-39,0-53.8
		l-50.7-50.7L273.8,329.7z"/>
	<path class="st7" d="M273.8,329.7l50.7,50.7c7.4,7.4,17.2,11.1,26.9,11.1c9.7,0,19.5-3.7,26.9-11.1l-77.6-77.6L273.8,329.7z"/>
</g>
</svg>
