<?xml version="1.0" encoding="utf-8"?>
<!-- Generator: Adobe Illustrator 25.2.3, SVG Export Plug-In . SVG Version: 6.00 Build 0)  -->
<svg version="1.1" id="Livello_1" xmlns="http://www.w3.org/2000/svg" xmlns:xlink="http://www.w3.org/1999/xlink" x="0px" y="0px"
	 viewBox="0 0 398.9 398.9" style="enable-background:new 0 0 398.9 398.9;" xml:space="preserve">
<style type="text/css">
	.st0{display:none;}
	.st1{display:inline;fill:#B18759;}
	.st2{display:inline;fill:#E6E7E8;}
	.st3{display:inline;fill:#D8D7DA;}
	.st4{display:inline;fill:#8B5E3C;}
	.st5{display:inline;fill:#6F9ED4;}
	.st6{display:inline;fill:#D1D3D4;}
	.st7{display:inline;fill:#787680;}
	.st8{display:inline;fill:#898890;}
	.st9{display:inline;fill:#FCCB00;}
	.st10{display:inline;fill:#1D1D1B;}
	.st11{display:inline;fill:#FF5023;}
	.st12{display:inline;fill:#CECECE;}
	.st13{display:inline;fill:#AEAEAE;}
	.st14{display:inline;fill:#4C94E2;}
	.st15{display:inline;fill:#BDE5FB;}
	.st16{display:inline;}
	.st17{fill:#BDE5FB;}
	.st18{display:inline;fill:#D80027;}
	.st19{display:inline;fill:#C6C5CA;}
	.st20{fill:#95A5A5;}
	.st21{fill:#BDC3C7;}
	.st22{fill:#35495E;}
	.st23{fill:#7F8C8D;}
	.st24{fill:#F0C419;}
	.st25{fill:#4482C3;}
	.st26{fill:#E64C3C;}
</style>
<g id="Clipboard-Management-Project-Setting-List" class="st0">
	<path class="st1" d="M350,90.2v265.3c0,14-11.3,25.3-25.3,25.3H110c-5.5,0-10.8-1.8-15.2-5.1c-1.7-1.3-3.3-2.8-4.6-4.5
		c-3.5-4.5-5.5-10-5.5-15.7V90.2c0-14,11.3-25.3,25.3-25.3h214.7C338.6,64.9,350,76.2,350,90.2z"/>
	<path class="st2" d="M324.7,96.5v208.4h-37.9c-7,0-12.6,5.7-12.6,12.6v37.9H116.3c-3.5,0-6.3-2.8-6.3-6.3V96.5
		c0-3.5,2.8-6.3,6.3-6.3h202.1C321.9,90.2,324.7,93,324.7,96.5z"/>
	<path class="st3" d="M241.5,270.2l-4.5,22.4L223.6,306c-4.9,5-4.9,12.9,0,17.9c4.9,4.9,12.9,4.9,17.9,0c0,0,0,0,0,0l13.4-13.4
		l22.4-4.5l4.4-4.5l43-43v-71.4L241.5,270.2z"/>
	<path class="st4" d="M350,161.8l-25.3,25.2v71.4l25.3-25.3V161.8z"/>
	<path class="st3" d="M171.1,326.8c-1.5,5.8-3.8,11.4-6.9,16.5l9,12.1h-57c-3.5,0-6.3-2.8-6.3-6.3v-120h12.6l3,21
		c5.8,1.5,11.4,3.8,16.5,6.9l17-12.8l17.9,17.9l-12.8,17c3.1,5.2,5.4,10.7,6.9,16.5l21,3v25.3L171.1,326.8z"/>
	<path class="st2" d="M376.2,146c-4.7-4.8-11.1-7.4-17.8-7.5c-2.9,0-5.8,0.5-8.5,1.5c-3.5,1.2-6.8,3.3-9.4,5.9l-9,8.9l18.4,18.4
		l17.4,17.4l8.9-9c9.9-9.8,9.9-25.7,0.2-35.5C376.3,146.1,376.3,146,376.2,146z"/>
	<path class="st5" d="M350,173.3l-18.4-18.4l-6.9,6.9v0.1l-6.5,6.4l6.5,6.5l11.4,11.4L350,200l4,4l13.4-13.4L350,173.3z"/>
	<path class="st6" d="M324.7,304.9l-50.5,50.5v-37.9c0-7,5.7-12.6,12.6-12.6H324.7z"/>
	<path class="st2" d="M324.7,304.9v44.2c0,3.5-2.8,6.3-6.3,6.3h-44.2L324.7,304.9z"/>
	<path class="st7" d="M242.3,297.8l-13.4,13.4c-4.9,4.9-12.9,4.9-17.9-0.1c-2.4-2.4-3.7-5.6-3.7-8.9c0-3.3,1.3-6.5,3.7-8.9
		l13.4-13.4L242.3,297.8z"/>
	<path class="st8" d="M269.1,288.8l-4.4,4.5l-22.4,4.5l-17.9-17.9l4.5-22.4l4.5-4.4l17.8,17.9h0.1L269.1,288.8z"/>
	<path class="st9" d="M324.7,174.8l-6.5-6.5l-84.8,84.9l17.8,17.9h0.1l73.4-73.5l11.4-11.4L324.7,174.8z"/>
	<path class="st10" d="M350,200l-13.9-13.9l-11.4,11.4L251.2,271l17.8,17.8l55.6-55.6l25.3-25.3l4-3.9L350,200z"/>
	<path class="st11" d="M193.8,164.2c8,11.5,5.1,27.2-6.4,35.2c-11.5,8-27.2,5.1-35.2-6.4s-5.1-27.2,6.4-35.2
		c4.2-2.9,9.3-4.5,14.4-4.5C181.4,153.3,189.1,157.4,193.8,164.2z"/>
	<path class="st12" d="M147.9,96.5h138.9v18.9H147.9V96.5z"/>
	<path class="st13" d="M278.2,64.9c-4.6-4.1-10.5-6.3-16.7-6.3h-18.9V39.6c0-14-11.3-25.3-25.3-25.3c-14,0-25.3,11.3-25.3,25.3v18.9
		h-18.9c-13.9,0-25.2,11.3-25.3,25.3v12.6h138.9V83.8C286.8,76.6,283.7,69.7,278.2,64.9z"/>
	<path class="st4" d="M177,360.3l-7.7,7.7l-10.2,10.2L145.6,368l-3.5-2.6c-1.6,0.9-3.2,1.8-4.9,2.6c-3.7,1.8-7.7,3.3-11.7,4.3
		l-1.2,8.3H110c-5.5,0-10.8-1.8-15.2-5.1l-0.4-3.3c-1.4-0.4-2.8-0.8-4.2-1.2c-3.5-4.5-5.5-10-5.5-15.7V253.5
		c3.1-1.4,6.3-2.6,9.7-3.4l3-21H110v120c0,3.5,2.8,6.3,6.3,6.3h57L177,360.3z"/>
	<path class="st14" d="M158.5,314.2c-1.5,5.8-3.8,11.4-6.9,16.5l12.8,17l-7.7,7.7l-10.2,10.2L133,355.4l-3.5-2.6
		c-1.6,0.9-3.2,1.8-4.9,2.6c-3.7,1.8-7.7,3.3-11.7,4.3l-3,21H84.7l-3-21c-5.8-1.5-11.4-3.8-16.5-6.9l-17,12.8l-17.9-17.9l12.8-17
		c-3.1-5.2-5.4-10.7-6.9-16.5l-21-3v-25.3l21-3c1.5-5.8,3.8-11.4,6.9-16.5l-12.8-17l17.9-17.9l17,12.8c5.2-3.1,10.7-5.4,16.5-6.9
		l3-21H110l3,21c5.8,1.5,11.4,3.8,16.5,6.9l17-12.8l17.9,17.9l-12.8,17c3.1,5.2,5.4,10.7,6.9,16.5l21,3v25.3L158.5,314.2z"/>
	<path class="st15" d="M110,269.6c-8.1-3.5-17.2-3.5-25.3,0c-16,7-23.3,25.7-16.3,41.7c3.2,7.3,9,13.1,16.3,16.3
		c8.1,3.5,17.2,3.5,25.3,0c16-7,23.3-25.7,16.3-41.7C123.1,278.6,117.3,272.8,110,269.6z"/>
	<path class="st1" d="M211,33.3h12.6v12.6H211V33.3z"/>
	<g class="st16">
		<path class="st17" d="M91,235.4h12.6V248H91V235.4z"/>
		<path class="st17" d="M48.2,258.4l8.9-8.9l8.9,8.9l-8.9,8.9L48.2,258.4z"/>
		<path class="st17" d="M34.2,292.3h12.6v12.6H34.2V292.3z"/>
		<path class="st17" d="M48.2,338.7l8.9-8.9l8.9,8.9l-8.9,8.9L48.2,338.7z"/>
		<path class="st17" d="M91,349.1h12.6v12.6H91V349.1z"/>
		<path class="st17" d="M128.5,338.7l8.9-8.9l8.9,8.9l-8.9,8.9L128.5,338.7z"/>
		<path class="st17" d="M147.9,292.3h12.6v12.6h-12.6V292.3z"/>
		<path class="st17" d="M128.6,258.4l8.9-8.9l8.9,8.9l-8.9,8.9L128.6,258.4z"/>
	</g>
	<path class="st18" d="M168.6,180.4l31.6-31.6l8.9,8.9l-31.6,31.6L168.6,180.4z"/>
	<path class="st19" d="M217.3,159.6H230v12.6h-12.6V159.6z"/>
	<path class="st19" d="M242.6,159.6h25.3v12.6h-25.3V159.6z"/>
	<path class="st19" d="M217.3,184.9h37.9v12.6h-37.9V184.9z"/>
</g>
<g>
	<rect x="149.9" y="308.8" class="st20" width="98.3" height="55.7"/>
	<path class="st21" d="M352.6,72.6H45.5c-6.5,0-12.8,2.6-17.4,7.2s-7.2,10.9-7.2,17.4v202.7c0,6.5,2.6,12.8,7.2,17.4
		c4.6,4.6,10.9,7.2,17.4,7.2h307.1c6.5,0,12.8-2.6,17.4-7.2c4.6-4.6,7.2-10.9,7.2-17.4V97.1c0-6.5-2.6-12.8-7.2-17.4
		C365.3,75.2,359.1,72.6,352.6,72.6z"/>
	<path class="st22" d="M377.1,275.3V97.1c0-6.5-2.6-12.8-7.2-17.4c-4.6-4.6-10.9-7.2-17.4-7.2H45.5c-6.5,0-12.8,2.6-17.4,7.2
		c-4.6,4.6-7.2,10.9-7.2,17.4v178.1H377.1z"/>
	<path class="st21" d="M106.9,349h184.3c3.4,0,6.1,2.7,6.1,6.1v12.3c0,3.4-2.7,6.1-6.1,6.1H106.9c-3.4,0-6.1-2.7-6.1-6.1v-12.3
		C100.8,351.7,103.5,349,106.9,349z"/>
	<g>
		<path class="st23" d="M70.1,177c-2.7,0-5.1-1.7-5.9-4.3c-0.8-2.6,0.2-5.4,2.4-6.9l79.8-55.3c1.8-1.2,4.1-1.4,6.1-0.5
			c2,0.9,3.3,2.9,3.5,5.1c0.2,2.2-0.8,4.3-2.6,5.6l-79.8,55.3C72.5,176.6,71.3,177,70.1,177z"/>
		<path class="st23" d="M235.9,170.8c-2.3,0-4.4-1.3-5.4-3.3s-0.9-4.5,0.4-6.4l86-122.8c2-2.7,5.8-3.4,8.5-1.5
			c2.8,1.9,3.5,5.7,1.5,8.5l-86,122.8C239.8,169.9,237.9,170.8,235.9,170.8z"/>
		<path class="st23" d="M235.9,183.1c-1.3,0-2.6-0.4-3.6-1.2l-92.1-67.6c-2.7-2-3.3-5.8-1.3-8.6c2-2.7,5.8-3.3,8.6-1.3l92.1,67.6
			c2.1,1.6,3,4.3,2.2,6.9C240.9,181.4,238.5,183.1,235.9,183.1z"/>
	</g>
	<path class="st24" d="M149.9,158.6v92.1H70v-36.9c17.9,0,33.9-11.1,40.2-27.8L149.9,158.6z"/>
	<path class="st25" d="M328,78.7v172h-98.3v-36.9c13.8,0,26.7-6.6,34.8-17.7c8.1-11.1,10.4-25.5,6.1-38.5L328,78.7z"/>
	<path class="st26" d="M229.7,213.8v36.9h-79.8v-92.1l39.6,27.5h0.1C195.8,202.8,211.9,213.8,229.7,213.8z"/>
	<g>
		<circle class="st21" cx="70" cy="170.8" r="18.4"/>
		<circle class="st21" cx="229.7" cy="170.8" r="18.4"/>
		<circle class="st21" cx="328" cy="35.7" r="18.4"/>
		<circle class="st21" cx="149.9" cy="115.6" r="18.4"/>
	</g>
</g>
</svg>
