<?xml version="1.0" encoding="utf-8"?>
<!-- Generator: Adobe Illustrator 25.1.0, SVG Export Plug-In . SVG Version: 6.00 Build 0)  -->
<svg version="1.1" id="Livello_1" xmlns="http://www.w3.org/2000/svg" xmlns:xlink="http://www.w3.org/1999/xlink" x="0px" y="0px"
	 viewBox="0 0 398.9 398.9" style="enable-background:new 0 0 398.9 398.9;" xml:space="preserve">
<style type="text/css">
	.st0{fill:#656565;}
	.st1{fill:#393939;}
	.st2{fill:#818181;}
	.st3{fill:#5A5A5A;}
	.st4{fill:#FEFEFE;}
	.st5{fill:#A2A2A2;}
	.st6{fill:#A5A5A5;}
	.st7{fill:#A0A0A0;}
	.st8{fill:#A1A1A1;}
	.st9{fill:#595959;}
	.st10{fill:#FBFBFB;}
	.st11{fill:#FCFCFC;}
	.st12{fill:#999999;}
	.st13{fill:#1F272F;}
	.st14{fill:#94989B;}
	.st15{fill:#F6F6F6;}
	.st16{fill:#DADCDD;}
	.st17{fill:#F3F3F3;}
	.st18{fill:#EAEBEB;}
	.st19{fill:#775957;}
	.st20{fill:#4E4E50;}
	.st21{fill:#54707C;}
	.st22{fill:#4B6876;}
	.st23{fill:#454546;}
	.st24{fill:#F9BE96;}
	.st25{fill:#5D7784;}
	.st26{fill:#454547;}
	.st27{fill:#F8BE96;}
	.st28{fill:#FBFAF8;}
	.st29{fill:#4F4E50;}
	.st30{fill:#E66E5E;}
	.st31{fill:#E7A081;}
	.st32{fill:#E9A081;}
	.st33{fill:#E6A183;}
	.st34{fill:#E9A281;}
	.st35{fill:#5B514C;}
	.st36{fill:#785A4D;}
	.st37{fill:#F1C9B1;}
	.st38{fill:#EA604F;}
	.st39{fill:#F8BD96;}
	.st40{fill:#E8A080;}
	.st41{fill:#E8A181;}
	.st42{fill:#F0BC99;}
	.st43{fill:#E6A081;}
	.st44{fill:#FCFAF8;}
	.st45{fill:#EBB999;}
	.st46{fill:#FDFDFD;}
	.st47{fill:#423D3B;}
	.st48{fill:#413D39;}
	.st49{fill:#E0A185;}
	.st50{fill:#EDBB98;}
	.st51{fill:#ECDFD7;}
	.st52{fill:#DBB69B;}
	.st53{fill:#F8BD97;}
	.st54{fill:#E3A083;}
	.st55{fill:#D76557;}
	.st56{fill:#57403E;}
	.st57{fill:#4D4743;}
	.st58{fill:#D76857;}
	.st59{fill:#724B36;}
	.st60{fill:#FDD2C4;}
	.st61{fill:#FBB998;}
	.st62{fill:#454446;}
	.st63{fill:#645348;}
	.st64{fill:#865A44;}
	.st65{fill:#FDFCFC;}
	.st66{fill:#F5C5A5;}
	.st67{fill:#F4C19E;}
	.st68{fill:#E6A121;}
	.st69{fill:#E7A282;}
	.st70{fill:#DFA73D;}
	.st71{fill:#EC6958;}
	.st72{fill:#DB8A98;}
	.st73{fill:#F9F0ED;}
	.st74{fill:#B95E5A;}
	.st75{fill:#443D39;}
	.st76{fill:#3F3C3A;}
	.st77{fill:#FAEEED;}
	.st78{fill:#BA5C5B;}
	.st79{fill:#E49F51;}
	.st80{fill:#DA8B99;}
	.st81{fill:#F9F3F0;}
	.st82{fill:#BB5C5A;}
	.st83{fill:#3F3D3A;}
	.st84{fill:#FEFAF8;}
	.st85{fill:#BA5C5A;}
	.st86{fill:#453D38;}
	.st87{fill:#4D4139;}
	.st88{fill:#E9A080;}
	.st89{fill:#FCB993;}
	.st90{fill:#ED9D7F;}
	.st91{fill:#413D3A;}
	.st92{fill:#403C39;}
	.st93{fill:#E8987B;}
	.st94{fill:#EA6366;}
	.st95{fill:#E56B64;}
	.st96{fill:#4D3C38;}
	.st97{fill:#FDB894;}
	.st98{fill:#FDB692;}
	.st99{fill:#413E3B;}
	.st100{fill:#DB8E9C;}
	.st101{fill:#3C3B3C;}
	.st102{fill:#BA5F5B;}
	.st103{fill:#B95D5B;}
	.st104{fill:#FEF9F7;}
	.st105{fill:#F2C09E;}
	.st106{fill:#61443A;}
	.st107{fill:#B46C72;}
</style>
<g>
	<path class="st0" d="M737.4,512.7c-2.8-0.5-6-0.5-8.6-1.7c-8.2-3.9-17.1-6.8-23.7-13.6c-3.9-4-5-7.9-2.3-13.3
		c8.2-16,16.2-32.2,23.7-48.5c11.5-25,23.7-49.6,35.6-74.4c4.4-9.2,8.6-18.5,13.3-27.6c1.4-2.7,1.7-4.8-1.7-6.4
		c-11.7-5.4-22.6-12.4-34.8-16.7c-4.9-1.7-6.6-4.7-5.3-10c3.6-14.4,9.1-28,16.9-40.8c3.7-6.2,7.9-12,11.6-18.2
		c3.6-6,6.2-6.7,12.5-3.8c24.8,11.1,49.2,22.9,73.5,35.1c6.3,3.2,12.8,5.9,19.2,8.8c3.3,1.5,5.3,3.8,6.4,7.3
		c5.2,15.5,10.4,31,15.8,46.4c1,2.7,0.8,4.7-0.6,6.9c-5.4,8.4-10.8,16.8-16,25.4c-2.5,4.1-5.4,4.3-9.4,2.3
		c-11.7-5.8-23.6-11.2-35.3-17c-3.3-1.6-4.8-1.3-6.5,2.1c-14.4,29.3-28,58.9-42.3,88.3c-10,20.6-19.9,41.3-29.6,62.1
		C747.5,510.7,742.7,511.9,737.4,512.7z"/>
	<path class="st0" d="M753.1,203.3c-2.1,5.5-4.1,10.7-6.1,16c-3.4,8.7-9.6,15.1-17,20.5c-5.3,3.9-5.4,5.5,0.3,9
		c3.8,2.3,6.7,5.3,9.5,9.8c-9.8-1-18.4-3.6-27-5.7c-6.6-1.7-13.5-2.7-20-4.7c-1.7-0.5-4-0.7-4.2-2.6c-0.2-2.1,2.1-2.4,3.8-2.9
		c9.4-3,18.7-6.4,27-11.9c9.3-6.1,14.6-14.5,16.7-25.7c2-10.9,1.1-21.8,1.6-32.7c0.1-1.5-0.7-3.6,1.1-4.3s2.9,1.2,3.7,2.4
		c5.7,8,13.3,14.1,20,21.1c6.6,7,14.9,11.3,24.4,12.7c4.9,0.7,9.9-0.6,14.6-1.7c7.9-1.8,15.7-3.9,22.8-8.1c1.3-0.8,3.4-2,4.9-0.5
		c1.4,1.3,0.3,2.9-0.6,4.3c-8.5,11.7-16.9,23.4-25.3,35c-0.6,0.9-0.8,2.8-2.5,2.1c-1.4-0.6-0.7-2.2-0.7-3.4c0-3.4-0.1-6.7,0.2-10.1
		c0.4-4.6-1.9-5.7-6-5.6c-8.3,0.2-16.5,0.5-24.4-3.1C763.9,210.6,759.4,206,753.1,203.3z"/>
	<path class="st0" d="M907.8,370c-4.5-2.6-7.9-4.7-11.3-6.7c-0.8-0.5-1.6-1-1.5-2c0.1-1.4,1.4-1.5,2.4-1.5c2.5-0.1,5.1-0.5,7.4,0.2
		c7.4,2,14.9,2.2,22.4,2.9c1,0.1,2.2,0.1,3.1,0.5c1.3,0.5,3.1,0.9,3.2,2.4c0.1,1.7-1.9,1.9-3.1,2.3c-9,3.1-16.5,8.5-23.4,15
		c-4.1,3.9-5.7,8.4-5.6,13.7c0.3,10-0.8,20,0.9,30.4c-5.6-1.7-8.9-5.4-12.1-9.1c-6.2-7-13.9-11.2-23-13.2
		c-5.9-1.3-11.4,0.6-16.7,2.7c-5.6,2.2-11,4.8-16.5,7.2c-1,0.4-2,1.1-2.8,0c-0.6-0.8,0.2-1.6,0.7-2.3c5.5-9.4,10.9-18.9,16.3-28.4
		c0.6-1.1,0.6-3.1,2.7-2.5c1.5,0.4,1.5,1.8,1.7,3c0.5,3.1-1.4,6.9,1.4,9.1c2.9,2.2,6.9,1.1,10.3,0.9c7.5-0.5,14.3,1.4,20.6,5.4
		c2.5,1.6,3.9,2.1,4.7-1.6C892,386.9,894.9,375.7,907.8,370z"/>
</g>
<g>
	<path class="st1" d="M190,649.8c0-4.3,0.2-8.6-0.1-12.9c-0.2-3.3,1-4,4.1-3.9c8,0.2,16,0,24.1,0.1c2.2,0,3.1-0.7,3.7-2.8
		c2.1-7.4,4.8-14.5,8.7-21.2c1-1.8,0.9-2.8-0.5-4.3c-6-5.9-11.8-11.9-17.7-17.8c-1.7-1.6-1.7-2.6,0-4.3c6.9-6.7,13.6-13.4,20.3-20.3
		c1.7-1.8,2.7-1.5,4.3,0.1c5.8,5.9,11.7,11.7,17.5,17.6c1.4,1.5,2.5,1.6,4.3,0.6c6.4-3.8,13.3-6.6,20.5-8.5c2.7-0.7,3.2-2,3.2-4.5
		c-0.1-7.8,0-15.6-0.1-23.3c0-2.4,0.5-3.4,3.1-3.3c9.2,0.1,18.4,0.1,27.7,0c2.4,0,3,0.8,3,3.1c-0.1,8,0,16-0.1,24.1
		c0,2.2,0.4,3.4,2.9,4c7.5,1.8,14.6,4.7,21.2,8.6c1.9,1.1,3,0.9,4.6-0.6c5.8-5.9,11.9-11.5,17.6-17.4c2-2,3-1.7,4.8,0.1
		c6.5,6.7,13.1,13.3,19.8,19.8c1.9,1.8,2.1,2.9,0.1,4.8c-5.9,5.7-11.6,11.7-17.5,17.5c-1.3,1.3-1.6,2.3-0.6,4
		c3.9,6.6,6.7,13.8,8.7,21.2c0.7,2.5,1.9,3.1,4.3,3.1c8-0.1,16,0,24.1-0.1c2.3,0,3.1,0.7,3.1,3.1c-0.1,9.2-0.1,18.4,0,27.7
		c0,2.3-0.7,3.1-3,3.1c-8.3-0.1-16.5,0-24.8-0.1c-2,0-2.9,0.5-3.4,2.6c-1.8,7.5-4.8,14.5-8.7,21.1c-1.1,2-0.8,3.1,0.7,4.6
		c5.8,5.7,11.4,11.6,17.2,17.3c1.7,1.7,2,2.7,0.1,4.5c-6.9,6.6-13.7,13.4-20.4,20.3c-1.7,1.7-2.6,1.6-4.3,0
		c-5.8-5.9-11.7-11.6-17.5-17.5c-1.4-1.4-2.5-2-4.5-0.8c-6.6,3.9-13.7,6.8-21.2,8.6c-2.6,0.6-3.1,1.8-3,4.2c0.1,8.1,0,16.3,0.1,24.4
		c0,2.5-0.4,3.6-3.3,3.6c-9.1-0.2-18.2-0.1-27.3,0c-2.6,0-3.2-0.9-3.2-3.3c0.1-8.3,0-16.5,0.1-24.8c0-2.3-0.5-3.4-2.9-4
		c-7.3-2-14.3-4.8-20.8-8.7c-1.8-1.1-2.9-0.8-4.3,0.6c-5.8,5.9-11.7,11.7-17.5,17.6c-1.7,1.7-2.7,1.6-4.3-0.1
		c-6.7-6.9-13.4-13.7-20.3-20.3c-1.8-1.7-1.5-2.6,0.1-4.2c5.8-5.7,11.4-11.6,17.3-17.2c1.9-1.8,1.9-3.1,0.6-5.1
		c-3.7-6.3-6.6-13-8.2-20.2c-0.7-2.8-2-3.2-4.4-3.2c-8,0.1-16-0.1-24.1,0.1c-2.6,0.1-3.6-0.6-3.5-3.4
		C190.2,658.9,190,654.3,190,649.8z"/>
	<path class="st2" d="M216.5,610.6c0,0.2,0,0.5-0.1,0.7c-3.6,10.3-3.7,10.3-14.6,10.3c-6.6,0-13.2,0.1-19.8,0
		c-2.7-0.1-3.6,0.9-3.5,3.6c0.2,5.4,0,10.8,0.1,16.2c0,2.1-0.7,3.2-2.9,3c-0.6,0-1.2,0-1.8,0c-6.3,0-6.4,0-5.6-6.1
		c0.2-1.8-0.4-2.6-2.1-3.1c-10.6-2.6-20.3-7.1-29.4-13c-1.7-1.1-2.7-0.6-4,0.7c-5.6,5.7-11.4,11.3-16.9,17.1
		c-1.8,1.9-2.9,2.1-4.8,0.1c-6.5-6.7-13.1-13.3-19.8-19.8c-1.8-1.7-1.9-2.9,0-4.6c5.8-5.6,11.3-11.4,17.1-16.9
		c1.8-1.8,1.5-3.1,0.3-4.9c-6.4-9.9-11.1-20.6-13.4-32.3c-0.5-2.4-1.6-3.4-4.1-3.3c-8,0.1-16,0-24.1,0.1c-2.6,0-3.6-0.9-3.5-3.5
		c0.1-9.2,0.1-18.4,0-27.7c0-2.5,0.9-3.4,3.3-3.3c7.9,0.1,15.8-0.1,23.7,0.1c2.7,0.1,4.1-0.7,4.7-3.5c2.6-11.7,7.1-22.6,13.6-32.6
		c1.2-1.9,1-3.1-0.6-4.6c-5.8-5.7-11.5-11.6-17.3-17.2c-1.7-1.7-1.7-2.7,0-4.3c6.8-6.6,13.5-13.3,20.1-20.1c1.8-1.9,3-1.6,4.6,0.1
		c5.5,5.7,11.2,11.2,16.7,16.9c1.6,1.7,2.9,1.8,4.9,0.6c9.9-6.4,20.7-11,32.3-13.5c2.6-0.6,3.5-1.7,3.4-4.4c-0.2-7.7,0-15.3-0.1-23
		c0-2.6,0.7-3.6,3.4-3.6c9.2,0.1,18.4,0.1,27.7,0c2.8,0,3.4,1.2,3.4,3.7c-0.1,7.7,0.1,15.3-0.1,23c-0.1,2.7,0.9,3.8,3.5,4.4
		c11.7,2.4,22.6,7,32.6,13.5c2,1.3,3.3,1,4.9-0.6c5.6-5.7,11.5-11.2,17.1-16.9c1.8-1.8,2.9-1.8,4.7,0c6.6,6.8,13.3,13.5,20.1,20
		c1.7,1.7,1.6,2.7,0,4.3c-5.7,5.5-11.1,11.2-16.8,16.7c-1.9,1.9-2,3.3-0.6,5.5c5.5,8.6,9.8,17.9,12.2,27.8c0.7,2.7,1.9,3.1,4.4,2.5
		c5-1.2,5.1-1.1,5,4.1c-0.1,8.2,0.9,7.1-7,7.2c-4.3,0-8.6,0.1-12.9,0c-2.7-0.1-3.6,0.9-3.6,3.5c0.1,8.5-0.1,17,0.1,25.5
		c0.1,3.2-0.9,4.9-4,5.7c-2.2,0.6-4.2,1.6-6.3,2.5c-1.6-0.9-1.6-2.3-1.1-3.7c2.1-6,2.7-12.3,3.6-18.5c0.3-3,0.3-6,0-9
		c-0.4-3.9-1.5-7.7-1.3-11.7c0.1-0.2,0.1-0.6,0.2-0.7c4.5-2.4,3.7-5.9,2.1-9.8c-11.7-28.3-32.3-45.8-62.7-50.2
		c-27.6-4-51.2,5-69.7,25.8c-15.4,17.2-21.6,37.7-19,60.8c1.7,14.8,7.1,28.1,16.3,39.6c9.6,12.1,21.9,20.5,36.5,25.8
		c4,1.5,5.6-1,7.8-3.1c1.8,0,3.7-0.3,5.5,0.1c1.3,0.4,2.6,0.4,4,0.5c1.2,0.2,2.4,0.5,3.6,0.6c2.8,0.2,5.6,0.3,8.3-0.1
		c1.2-0.2,2.4-0.5,3.6-0.6c1.2-0.1,2.3,0,3.5-0.4c3.6-0.3,7-1.3,10.4-2.5C213.7,609.2,215.4,608.6,216.5,610.6z"/>
	<path class="st3" d="M185.8,615.1c-1.3-0.2-2.5-0.5-3.8-0.7c-1.2,0.5-2.3,0.4-3.5,0c-1.6-0.5-3.3-1-4.9-1.5
		c-2.5-4.9-7.7-5.5-11.9-7.5c-23.7-11.5-38.4-30.1-41.3-56.4c-3.4-30.1,11-56.9,37-70.5c38.2-20,83.4-2.9,99.1,37.2
		c1.4,3.5,3.2,6.2,6.1,8.3c1.5,3.7,1.3,7.7,2.2,11.5c0.5,3,0.5,6.1,0,9.1c-0.8,7.5-2.5,14.9-4.4,22.2c-1.3,1-2.5,1.2-3.7-0.3
		c-0.8-0.9-1.7-1.7-2.5-2.5c-8.6-8.6-8.6-8.6-6.3-20.7c0.3-1.6,1-2.4,2.6-2.2c2.7,0.3,3-1.1,3-3.4c-0.5-28.2-23.2-54-51.7-58.9
		c-34.2-5.8-66,16-72.9,49.9c-7.1,34.6,17.1,69.2,51.9,74.2c1.9,0.3,3.8,0.4,5.7,0.7c2.7,0.3,5.1,0.3,4.5-3.6
		c-0.2-1.7,1.3-1.8,2.5-1.8c3.5-0.2,6.9-0.5,10.3-1.5c1.1-0.3,2.1-0.1,2.9,0.8c3.3,3.3,6.5,6.7,9.8,9.9c1.2,1.1,1.3,2.2,0.2,3.4
		c-4.8,1.2-9.5,2.5-14.3,3.7c-1.2,0.5-2.3,0.5-3.5,0c-1.3,0.2-2.6,0.5-3.8,0.7C191.9,615.5,188.9,615.5,185.8,615.1z"/>
	<path class="st4" d="M299.4,581c37.8-0.2,68.7,30.5,68.9,68.5c0.2,37.8-30.3,68.7-68,69c-38.3,0.3-69.4-30.4-69.4-68.6
		C230.7,611.9,261.3,581.2,299.4,581z"/>
	<path class="st4" d="M262.6,523.9c-4.9,0.8-4.9,0.8-6.4-4.1c-9-28.7-36.3-48.4-66.5-47.9c-35.3,0.6-63.9,26.8-67.8,61.9
		c-3.5,31.9,17.1,63.2,47.7,72.6c4.9,1.5,4.9,1.5,4,6.4c-2,6.3-2,6.3-8.4,4.1c-35.3-11.9-57.8-46.1-54.7-83.2
		c3-36.9,32.2-67.4,69.1-72.4c38.4-5.2,74.9,17.4,87.1,54.1C268.8,521.9,268.8,521.9,262.6,523.9z"/>
	<path class="st5" d="M264.8,544.5c0-3,0-6.1,0-9.1C265.8,538.4,265.8,541.4,264.8,544.5z"/>
	<path class="st6" d="M185.8,615.1c3,0,6.1,0,9.1,0C191.9,616.1,188.9,616.1,185.8,615.1z"/>
	<path class="st7" d="M178.6,614.4c1.2,0,2.3,0,3.5,0C180.9,615.1,179.7,615,178.6,614.4z"/>
	<path class="st8" d="M198.8,614.3c1.2,0,2.3,0,3.5,0C201.1,615.1,199.9,615.1,198.8,614.3z"/>
	<path class="st9" d="M299.5,592.3c31.6-0.1,57.3,25.6,57.3,57.3c0.1,31.8-25.4,57.3-57.1,57.4c-31.9,0.1-57.7-25.6-57.6-57.4
		C242.3,617.9,267.8,592.4,299.5,592.3z"/>
	<path class="st4" d="M248,649.6c0.1-28.6,23.4-51.6,51.7-51.4c28.7,0.3,51.4,23.2,51.3,51.8c-0.1,28.5-23.2,51.3-51.9,51.2
		C270.8,701.1,247.9,677.9,248,649.6z"/>
	<path d="M259.3,649.2c0.6-22.5,18.9-40.3,40.7-39.7c22.9,0.7,40,18.8,39.6,41.4c-0.4,20.8-18.6,40.1-42.4,38.9
		C276.4,688.8,258.8,670.3,259.3,649.2z"/>
	<path class="st10" d="M300.2,656.4c-6.2,0-6.2,0-6.2-6.2c0-5.2,0-5.2,5.4-5.2c6.8,0,6.8,0,6.8,5.6
		C306.2,657.3,307.1,656.3,300.2,656.4z"/>
	<path class="st11" d="M321.9,645c6,0,6,0,6,6c0,1-0.1,1.9,0,2.9c0.2,1.8-0.6,2.7-2.4,2.5c-0.6-0.1-1.2,0-1.8,0c-8,0-7.9,0-8-8
		c0-2.6,0.6-3.8,3.3-3.4C320,645.2,320.9,645,321.9,645z"/>
	<path class="st10" d="M282.1,650.6c0,5.8,0,5.8-6.3,5.8c-6,0-5,0.7-5.1-6.7c0-5.5-0.9-4.6,6.7-4.6C282.1,645,282.1,645,282.1,650.6
		z"/>
</g>
<g>
	<path class="st12" d="M-448.4,522.9c-0.4-0.3-0.7-1-1.1-1c-15.2-1.9-29.8-6.3-43.7-12.3c-14.3-6.2-27.5-14.2-39.6-24.1
		c-14.5-11.8-27-25.5-37.1-41.2c-13.4-20.9-21.9-43.5-25.6-68c-1.8-11.7-2.3-23.4-1.6-35.2c1.1-20.5,5.7-40.3,14.1-59.2
		c5-11.4,11.1-22.2,18.4-32.2c9.8-13.4,21.2-25.3,34.3-35.6c16.4-12.8,34.4-22.3,54.2-28.5c11.2-3.5,22.6-6,34.4-6.9
		c5.5-0.4,11-0.9,16.9-1.4c0-4.2-0.1-8.5,0-12.8c0-1.9,0.5-3.7,0.7-5.6c1.6,0,3.2,0,4.8,0c3,2.7,5.9,5.6,9.1,8.2
		c7.2,6,14.7,11.9,21.9,18c5,4.2,5.1,7.4,0.2,11.7c-9.9,8.7-20,17.1-30,25.6c-0.6,0.5-1.3,1-2,1.3c-2.1,1.1-3.7,0.6-4-1.8
		c-0.5-3.9-0.5-7.8-0.6-11.7c-0.1-1.6,0-3.2,0-5.4c-5.4,0.3-10.6,0.4-15.8,0.9c-11.6,1.3-22.9,3.9-33.9,8c-16.1,6-30.9,14.4-44,25.6
		c-12.3,10.5-22.7,22.4-31,36.3c-9.2,15.3-15.4,31.7-18.5,49.3c-2.7,15.5-3,30.9-0.8,46.5c3.9,28.2,15.4,53,33.7,74.6
		c12.5,14.7,27.4,26.3,44.5,35c15.3,7.8,31.6,12.7,48.7,14.7c24.8,3,48.7-0.2,71.8-9.3c6.4-2.5,12.5-6,18.8-8.9
		c9-4.2,19.6,2.8,19.1,12.6c-0.3,5.4-3.1,9.2-7.7,11.8c-18.2,10-37.4,16.9-58,20c-0.5,0.1-1,0.7-1.4,1
		C-415.7,522.9-432.1,522.9-448.4,522.9z"/>
	<path class="st12" d="M-436.7,346.1c-0.5-0.8-0.9-1.9-1.7-2.8c-5.6-6.7-11.2-13.4-16.8-20.1c-2.8-3.3-5.6-6.6-8.1-10.1
		c-4.2-5.7-3.1-11.8-1.1-17.9c2.8-8.6,5.7-17.1,8.7-25.6c0.8-2.2,0.5-3.2-1.8-3.9c-3.2-1-3.6-1.9-2.5-5.1c1.3-3.8,2.5-7.6,3.9-11.4
		c1.2-3.4,2.3-3.9,5.7-2.7c15.9,5.4,31.9,10.9,47.8,16.3c21.5,7.3,43.1,14.7,64.6,22c4.6,1.6,5.1,2.5,3.6,7
		c-1.2,3.4-2.4,6.8-3.6,10.2c-1.1,3.1-2.2,3.8-5.1,2.6c-2.1-0.8-3-0.4-3.7,1.8c-2.8,8.5-5.8,16.9-8.8,25.3
		c-3.2,9.1-10.1,13.9-19.2,16c-10.4,2.3-20.8,4.5-31.1,6.8c-4.1,0.9-6.3,8-3.6,11.2c8,9.5,15.9,19.1,23.8,28.7c4.1,5,5,10.6,3,16.7
		c-2.6,7.8-5.2,15.6-7.8,23.4c-0.8,2.5-1.6,4.5,2,5.4c2.3,0.6,3,2.3,2,4.7c-1.5,3.9-2.8,8-4.2,11.9c-0.9,2.5-2.3,3.4-5.1,2.5
		c-13.6-4.7-27.3-9.3-41-14c-24.3-8.3-48.6-16.5-72.9-24.8c-3.6-1.2-4-2-2.9-5.5c1.3-3.9,2.6-7.8,4-11.7c0.8-2.3,2.2-3.7,4.7-2.4
		c2.8,1.5,3.6-0.1,4.4-2.4c2.5-7.3,4.9-14.6,7.6-21.9c3-8,9-12.6,17.2-14.5c10.9-2.5,21.9-4.9,32.8-7.5c1.3-0.3,2.6-1.6,3.3-2.9
		C-437.6,350.1-437.4,348.2-436.7,346.1z M-444.4,271c-3.2,9.4-6.2,18.5-9.4,27.5c-1.8,5-0.6,8.7,2.9,12.6c8,9.2,15.7,18.7,23.6,28
		c2.6,3,3.3,6,1.8,9.7c-1.3,3.1-2.3,6.2-3.2,9.4c-1.1,3.8-3.4,5.8-7.3,6.6c-11.5,2.4-23,5.1-34.5,7.6c-5.9,1.3-9.9,4.4-11.8,10.4
		c-1.9,6.2-4.1,12.2-6.2,18.3c-1.3,3.7-1.3,3.7,2.5,5c25.1,8.5,50.1,17.1,75.2,25.6c2.7,0.9,5.5,1.8,8.6,2.8
		c2.8-8.4,5.3-16.4,8.2-24.4c1.6-4.4,0.7-7.8-2.4-11.3c-8.4-9.7-16.6-19.8-24.9-29.6c-2-2.3-2.5-4.7-1.5-7.5
		c1.4-4.1,2.8-8.2,4.2-12.3c0.9-2.6,2.7-4.1,5.4-4.7c12-2.7,24-5.4,36-7.9c5.9-1.2,9.7-4.5,11.6-10.2c2.7-8.1,5.5-16.2,8.3-24.3
		c0.1-0.4,0.1-0.9,0.1-1.6C-386.2,290.8-415.1,281-444.4,271z"/>
	<path class="st12" d="M-327.8,236c-9.3-0.1-21.2-9.6-22.9-16.5c-2-7.9,6.6-18.9,16.9-15.3c6.2,2.1,11.7,5.9,15.6,11.2
		c3,4.1,3.3,8.8,0.7,13.4C-320.1,233.2-323.9,235.9-327.8,236z"/>
	<path class="st12" d="M-293.1,416.3c2-5.6,3.4-12.9,9.2-18c4.6-4,10.6-4.1,15.6-0.7c4.9,3.4,7.3,9.3,5.4,14.7
		c-1.5,4.3-3.3,8.6-5.5,12.6c-2.9,5.1-9.3,7.3-14.9,5.7C-289.1,429-293.1,423.7-293.1,416.3z"/>
	<path class="st12" d="M-279.1,364.3c0.3-3.2,0.4-7.4,1.1-11.4c1.2-6.6,8.4-11.8,14.6-10.8c7.5,1.2,12.8,8.1,12,15.5
		c-0.4,3.2-0.5,6.4-0.8,9.6c-0.5,6.3-6.8,12.1-13.7,11.8C-273.1,378.7-279,372.4-279.1,364.3z"/>
	<path class="st12" d="M-256.5,309.2c0,8.8-4,13.8-10.6,15.3c-5.7,1.4-12.1-1.5-14.5-7.1c-1.8-4.3-3.3-8.9-4.1-13.5
		c-1.3-7,3.1-13.1,10-15.1c6-1.7,13.1,1.6,15.5,7.8C-258.3,301.3-257.3,306.4-256.5,309.2z"/>
	<path class="st12" d="M-290.3,455.2c0,8.6-12.1,20.9-20.4,20.7c-5.5-0.2-9.4-3-11.8-7.9c-2.5-5-1.6-9.6,1.6-13.8
		c2.4-3.1,5.1-5.9,8-8.6c4.1-3.9,8.9-4.9,14.1-2.8C-293.7,444.8-290.3,449.9-290.3,455.2z"/>
	<path class="st12" d="M-296.5,240.4c3.2,0.3,6.8,1.6,9.4,5.1c2.6,3.6,5.4,7,7.5,10.9c3.1,5.9,0.7,13.3-5.1,16.8
		c-5.8,3.6-13.5,2.2-17.6-3.1c-2.5-3.3-5.1-6.5-7.1-10.1C-314.3,251.2-307.7,240.4-296.5,240.4z"/>
</g>
<g>
	<path class="st13" d="M230.6,400c-3.5,0.1-7-0.9-10.4,0.8c-4.1,0.5-8.2,0.1-12.2,0.3c-1,0-2-0.3-3,0.3c-0.7,0-1.4,0-2,0
		c-2.7-0.6-5.4-0.1-8-0.3c-1.1,0-2.1,0-3.2,0c-2.5,0-4.9,0-7.4,0c-1.2-0.1-2.5,0.2-3.7-0.2c-0.9-0.5-2-0.3-3-0.4
		c-5.7-0.2-11.4-0.3-17.1-0.5c-1.3,0-2.5-0.3-3.5-1"/>
	<path class="st14" d="M205,401.3c0.6-0.9,1.5-0.5,2.3-0.5c4.3,0,8.6,0,12.9,0c0,0.2,0,0.3,0,0.5C215.1,401.3,210,401.3,205,401.3z"
		/>
	<path class="st15" d="M194.8,400.9c2.7,0.1,5.4-0.6,8.1,0.4c-2.7,0-5.4,0-8.1,0c-0.2-0.1-0.2-0.2-0.2-0.3
		C194.7,400.9,194.8,400.9,194.8,400.9z"/>
	<path class="st16" d="M184.2,400.9c2.5,0,5.1,0,7.6,0c0.2,0.1,0.2,0.2,0.2,0.3c-0.1,0.1-0.1,0.1-0.2,0.1c-2.5,0-5.1,0-7.6,0
		c-0.2-0.1-0.2-0.2-0.2-0.3C184.1,400.9,184.1,400.9,184.2,400.9z"/>
	<path class="st17" d="M184.2,400.9c0,0.1,0,0.3,0,0.4c-1.2,0-2.4,0-3.5,0c0-0.1,0-0.3,0-0.4C181.8,400.9,183,400.9,184.2,400.9z"/>
	<path class="st18" d="M191.8,401.3c0-0.1,0-0.3,0-0.4c1,0,2,0,3,0c0,0.1,0,0.3,0,0.4C193.8,401.3,192.8,401.3,191.8,401.3z"/>
</g>
<g>
	<path class="st19" d="M261.4,227.4c-1.3,2.1-2.8,4.2-3.9,6.4c-2.1,4.2-1.3,7.4,2.3,10.4c2.6,2.2,5.8,3.5,8.8,5.2
		c6.5,3.8,6.8,9.3,0.6,13.7c-2.8,2-6,3.2-8.5,5.6c-4.5,4.4-4.2,8.2,1.1,11.6c4.9,3.2,6.3,6.9,4.5,12.7c-2,6.9-6.9,11.3-12.8,14.9
		c-7.7,4.7-16.2,7-24.8,9c-0.9,1-2,1.3-3.3,1c-2.2-1.2-4.7-1.9-6.9-3c-5.9-2.9-6.5-4-5.7-10.7c0.5-1.5,0.5-3.1,0.4-4.7
		c0-0.4,0-0.8,0-1.2c0-2.6-0.2-5.3,0.9-7.8c0.7-1.9,2.4-2.8,3.8-4.1c9.6-8.3,14.9-19.2,17.8-31.3c0.4-1.6,0.4-3.3,1.5-4.6
		c2.4-2.4,4.5-5,5.4-8.4c1.1-4.8,0.7-5.7-4.5-7.9c-3-1.3-6.1-2.1-9.1-3.2c-1.6-0.6-3.2-1.2-4.9-1.5c-0.3-0.1-0.7-0.2-1-0.3
		c-1.2-0.4-2.4-0.4-3.7-0.6c-0.4-0.1-0.8-0.2-1.1-0.3c-15.6-3.1-30.9-1.8-46,3.2c-2.6,0.8-5.2,1.5-7.7,2.6c-1.6,0.4-3.1,2.1-4.7,0.2
		c-0.9,6.2,0.6,11.7,5.5,16c1.5,2.1,1.7,4.7,2.4,7.1c3.3,12.1,9.1,22.6,19.1,30.6c1,0.8,2,1.6,2.4,2.9c0.9,3.6-0.3,7.3,0.8,10.8
		c0.4,2,0.3,4,0.3,6c-0.1,6.2-6.5,10.5-12.6,8.6c-11.9-2.6-23.3-6.6-33-14.2c-3.8-3-7.8-6-9.6-10.9c-1.1-1-1.1-2.3-0.7-3.6
		c0.6-2.9,2.7-4.4,4.9-6c6.1-4.3,6-7.6-0.3-11.7c-1.2-0.8-2.4-1.4-3.6-2.1c-8.3-5-9.7-14.5-3.2-21.7c1.9-2.1,4.2-3.6,6.4-5.3
		c5.1-4.1,6.1-8.1,3.4-14c-1.7-3.7-4.3-7-4.9-11.4c-1.3-9.4,4.2-18.3,13.4-20.8c1.5-0.4,2.9-0.6,4.4-1.2c1.7-0.6,2.5-1.6,2.2-3.4
		c2.7-2.9,2.7-6.9,4.6-10.2c0.8-1.4,1.4-3,2.4-4.3c0.5-0.7,1.1-1.3,1.6-2c0.2-0.3,0.4-0.6,0.6-0.8c0.5-0.7,1.1-1.2,1.8-1.7
		c1.5-0.9,2.5-2.2,4-3.1c0.8-0.7,2-0.2,2.8-0.9c5-1.8,10-2.8,14.7,0.9c0.8,0.6,1.3,0.3,1.9-0.3c8.6-7.9,18.3-6.9,28.4-3.6
		c0.8,0.3,1.8-0.1,2.6,0.3c6.7,2.9,12.3,7.1,15.6,13.8c1.2,3,2.3,6.1,3.9,8.9c3.8,5.6,9.4,8.4,15.7,10.3c6.9,7.4,9.3,16,7,25.9
		C263.8,225.1,263.2,226.6,261.4,227.4z"/>
	<path class="st20" d="M100.7,120.8c-0.1,1-0.3,1.9,0.8,2.6c4.7,3.1,8.1,7.4,11.5,11.8c3.3,2.2,4.1,5.9,5.5,9.2
		c0.9,2.2,1.7,4.5,2.2,6.8c0.4,1.6,0.8,3.1,1,4.7c2.1,9.5,2.9,19.1,0.9,28.7c-1,5.2-1.6,5.7-5.8,4.7c-1.9-0.8-3.9-1.5-5.9-2.1
		c-4.6-1.6-9-3.5-13.7-4.7c-1.6-0.4-3.3,0.5-4.7-0.6c0.6-1.4,0.6-1.4-2.1-1.7c-2.1-0.9-4.3-1.6-6.1-3.1c-2.2-4.3-2.5-9.1-4-13.6
		c-0.7-3.4-1.8-6.8-2.4-10.4c-1.4,6.1-3.4,12.1-4.4,18.2c-0.9,5.6-4.1,8.1-9.2,8.9c-1.5,0.2-1.6,0.6-0.8,1.7
		c-1.9,1.3-4.2,0.7-6.2,1.2c-0.4,0-0.7,0-1.1-0.1c-0.9-0.2-1.7-0.4-2.6,0c-5.1,2.3-10.8,3-15.9,5.5c-1.5,1.4-2.6,0.8-3-0.9
		c-0.5-1.9-0.9-3.9-1.1-5.9c-1-13.3,0-26.3,5.4-38.7c3.3-7.6,8.2-13.9,14.9-18.9c0.9-0.6,2.1-1,2.1-2.5c13.2-8.5,26.9-8.3,40.9-2.2
		C98.1,119.9,99.3,120.5,100.7,120.8z"/>
	<path class="st21" d="M341.9,249.9c8.2,0.7,16.3,2.2,24,5.2c3.5,1.3,5.9,3.4,7.2,7.1c3.1,8.6,6.6,17,10,25.4
		c0.9,2.2,0.9,3.2-1.7,4.1c-35.9,11.9-71.8,11.9-107.7,0c-2.5-0.8-2.6-1.9-1.8-4.1c3.6-8.9,7.2-17.8,10.7-26.8
		c0.9-2.3,2.3-3.8,4.5-4.8c8.1-3.8,16.9-5.1,25.7-6.1c1.7,0.1,1.9,1.5,2.3,2.6c3.1,8.8,21,8.5,24.3,0.7
		C340,252,340.6,250.6,341.9,249.9z"/>
	<path class="st22" d="M225.5,317.6c1-0.2,2-0.4,3.1-0.7c5.7,2.5,11.8,3.4,17.7,5.2c3.9,1.2,6.7,3.3,8.8,6.7
		c4.3,6.7,6.2,14.3,8.3,21.9c0.6,2.3-1.2,2.4-2.6,2.8c-11.3,3.9-22.8,6.6-34.6,8.1c-28.2,3.7-55.8,1.2-82.8-7.6c-6-1.9-5-1-3.3-6.7
		c1.9-6.3,4.3-12.4,8.3-17.8c2.7-3.7,6.2-6.2,10.7-7.4c5.7-1.5,11.4-3.2,17.2-4.8c1.7-0.3,2.8,0.8,4,1.8c11.8,9.7,29.9,9.8,41.7,0.2
		C223,318.6,223.8,317.3,225.5,317.6z"/>
	<path class="st21" d="M134.9,288c0,1.1,0,2.2,0,3.3c-1.6-0.5-3,0.5-4.4,0.9c-35.4,11.3-70.8,11.2-106.2-0.3
		c-2.6-0.8-3.9-1.7-2.6-4.7c1.2-2.6,1.9-5.5,3-8.2c3.5-9.1,9.2-15.5,19.4-17.2c3.6-0.6,7.1-1.9,10.6-2.9c1.5-0.5,2.7,0.2,3.8,1.2
		c10.2,9.7,30.8,8.7,40.3-1.4c0.3-0.4,0.8-0.6,1.3-0.8c1.5-0.5,3,0,4.4,0.3c4.2,0.9,8.2,2.3,12.4,3.3c6.7,1.5,10.7,5.8,13.3,11.7
		C132.2,278,133.7,282.9,134.9,288z"/>
	<path class="st23" d="M296.4,124.5c5.3-1.9,10.4-4.5,16.2-4.9c3-0.2,5.9,0.5,9.4,0.4c-1.1-1.6-1.9-2.8-2.9-4.4
		c6.9-1.5,13.4-0.6,20,0.1c3.9,0.4,7.7,1.4,11.3,3c8.3,3.7,11.6,9.3,10.8,18.3c-0.1,1.1-0.2,2.3-0.3,3.4c0.5,5-1.2,9.5-3.5,13.7
		c-1.1,2.1-2.7,3.9-4.1,5.8c-1.8,2.3-3.7,4.6-6.7,5.5c-2.8,0.9-5.4,2.2-7.6,4.3c-0.6,0.4-1.3,0.8-2,0.9c-2.1,0.2-2.8-0.9-2.6-2.8
		c0.1-0.4,0.2-0.7,0.4-1c0.7-0.9,2.3-1.7,0.9-3c-1-1-2.4-0.5-3.4,0.2c-1.6,1.2-3.2,2.3-4.4,3.9c-1.4,1.6-3.2,2.4-5.1,3.2
		c-1,0.4-2.5,0.7-2.8-0.2c-1.1-3-2.8-1.4-4.4-0.8c-1.7,0.6-3.3,1.2-5,1.7c-3.1,0.8-3.8,0-2.9-3c0.6-2,1.8-3.9,2.5-6.4
		c-2.8,0.9-5.2,2-7.6,2.9c-1.7,0.6-2.4,2.1-3,3.7c-1.2,3.8-2.7,7.6-3.8,11.5c-0.4,1.3-0.6,2.7-1.8,3.7c-0.6,0.2-1.1,0.2-1.7,0
		c-2.3-2.1-2-5.1-3-7.7c-0.2-0.6-0.2-1.2-0.4-1.8c-2-7.6-2.7-15.3-1.6-23.1c-0.8-2.6,1.2-4.5,1.5-6.8c-1.2-1.8-2-3.5-0.2-5.4
		c0.4-0.5,0.8-1.1,0.7-1.7c-0.7-2.8,1.2-3.8,3.2-4.8c0.9-0.5,2.2-0.7,2.3-2.1c-1.4-1.4-4.1-2.5-1.2-4.9
		C294.5,125.2,295.3,124.5,296.4,124.5z"/>
	<path class="st24" d="M84.8,177c2,0.8,4,1.6,6.1,2.4c1.5,0.8,0.8,1.8,0.2,2.8c-0.5,0.7-1.2,1.3-1.8,2c-0.7,0.9-1.5,1.9-1,3.1
		c0.7,1.4,2,0.7,3,0.5c1.3-0.2,2.5-0.2,3.8-0.2c1.2-0.1,2.7,0.7,3.4-0.7c0.7-1.3-0.3-2.4-1.1-3.4c-0.4-0.5-0.8-1-0.5-1.7
		c5,0.8,9.6,3,14.4,4.7c2.4,4,0.8,8.2,0.3,12.2c-1.2,7.2-3.4,14-7,20.4c-3.8,4.9-6.6,10.6-11.9,14.3c-1.2,0.9-1.5,2.2-1.8,3.6
		c-0.2,0.9-0.3,2.2-1.8,1.6c-1-2.1-2.4-1.6-4.1-0.9c-5.6,2.2-11.1,1.6-16.5-1c-1.2-0.6-2-1.4-2.7-2.6c-0.3-0.2-0.5-0.4-0.8-0.7
		c-1-0.9-1.9-1.7-3.1-2.3c-8.5-7.2-12.9-16.8-15.9-27.3c-0.5-1.8-0.6-3.7-1.6-5.4c-1.4-4-1.4-7.9-0.4-12c3.6-2.3,7.6-3.7,11.9-4.2
		c0.2,0.1,0.5,0.1,0.7,0.2c0.1,0.1,0.2,0.2,0.3,0.3c1.1,1.5-1.7,4.1,0.4,4.6c2.9,0.7,6.2,0.8,9.2,0.5c1.5-0.1,0.9-1.7,0.4-2.8
		c-0.7-1.6-2.6-2-3.3-3.5c-0.6-0.4-1.3-0.7-2-1.2c0.4-0.2,0.7-0.4,1-0.5c7.4-0.9,9.9-5.7,10.9-12.4c0.9-5.8,2.7-11.5,4.3-18.2
		c1.5,5.2,2.7,9.5,3.3,13.9C82.2,167.8,82.4,172.7,84.8,177z"/>
	<path class="st20" d="M312.8,236.5c-5-3.3-10.4-6.1-14.5-10.6c-1-1.1-1.9-2.3-2.9-3.5c-2.6-1.9-3.2-4.8-3.3-7.7
		c-0.2-5.5-0.3-11.1,0.1-16.6c0.1-0.4,0.2-0.8,0.4-1.2c1.3-1.6,2.2-1.1,3,0.5c0.6,1.3,0.9,2.8,1.9,4c1.1,1.6,2.6,2.8,4,4.2
		c4,3.5,8,6.9,13.2,8.6c3.8,1.2,7.2,1.1,10.3-1.6c1.8-1.6,3.4-1.8,5.2,0c3.1,3.1,6.9,3.1,10.6,1.6c4.9-1.9,9.3-5,13-8.8
		c3-2.4,4.3-5.8,5.1-9.4c0.3-1.5,0.2-3.4,2.4-3.7c1.4,1.1,1.3,2.5,0.9,4c-0.5,3-0.4,6-0.1,9c0.1,3.2,0.3,6.3,0.1,9.5
		c-0.3,6.5-4.2,11-9,14.7c-3.4,2.6-7.1,4.8-10.7,7.1c-5.7,4.7-12.2,6.6-19.3,4.9C319.6,240.5,315.6,239.7,312.8,236.5z"/>
	<path class="st25" d="M293.2,196.8c0,4.2,0.1,8.3-0.1,12.5c-0.2,4.6,0.2,9,2.4,13.2c-11.2,2.5-22.7,3.9-34.1,4.9
		c4.9-7.5,2.7-19.5-2.2-26.2c-0.8-1.1-1.7-2.2-2.5-3.3c0.5-1.4,1.8-1.2,2.8-1.3c4.4-0.4,8.5-1.7,12.3-4.1c2-1.2,3.1-3.5,5.6-4
		c3.3,0.1,6.4,1,9.5,2.3C289.2,192.5,291.2,194.6,293.2,196.8z"/>
	<path class="st26" d="M53.4,107.9c5.5,2.1,11.2,2.3,16.9,2.2c0.8,0,2,0.5,2.4-0.5c0.4-1-0.5-1.8-1.2-2.6c-1.6-1.8-3-3.7-4.7-5.4
		c-2.3-2.5-1.3-3.7,1.5-4.2c5.3-1,9.8-3.6,14.3-6.3c1.1,1.2,2.7,1.1,4.1,1.6c12.3,4.3,18.5,16.7,14,28c-0.8,1.1-1.7,1.1-2.9,0.4
		c-13.2-7-26.4-7.2-39.6,0c-0.9,0.5-1.5,0.8-2.4,0.3c-1.8-3.1-2-6.4-1.8-9.8C54.2,110.4,54.9,108.9,53.4,107.9z"/>
	<path class="st24" d="M225.5,317.6c-12,12.4-32.1,12.3-43.9,4c-1.8-1.3-3.6-2.8-5.4-4.2c0.4-0.4,0.9-0.7,1.3-1.1
		c3.5,0.1,6.5-1.7,9.5-3.1c1.7-0.8,2.3-2,2.1-3.9c-0.2-2.5-0.2-5-0.2-7.5c-0.3-3.8,0.1-4.3,3.5-3c6.1,2.3,12,2.7,18-0.2
		c1.1-0.5,2.4-0.9,3.6,0.1c0,0.3,0,0.5,0,0.8c-0.6,1.5,0.2,3.1-0.5,4.6c-0.1,7.8-0.1,7.8,7.5,10.9
		C222.5,315.6,224.8,315.3,225.5,317.6z"/>
	<path class="st27" d="M100,258.4c-9,11.3-29.4,12.9-41.4,3.3c-1.2-1-2.2-2.5-4-2.7c3.4-1.3,7-2.1,10.2-3.9c1.5-0.8,2.1-1.7,2-3.6
		c-0.3-3.3-0.2-6.6-0.2-9.8c1.2-0.9,2.4-0.2,3.5,0.2c5.2,2.3,10.4,2.3,15.6,0c1.2-0.5,2.5-1.3,3.9-0.3c1.8,3.4,0,6.8,0.1,10.2
		c0.7,3.8,1.9,4.5,8.1,5.1C98.8,257,99.6,257.3,100,258.4z"/>
	<path class="st28" d="M119.9,151.1c-1.6-5.6-4-10.9-6.9-15.9c1.5-0.6,1.6-0.8,1.1-1.6c-1.9-3.1-1.1-11.8,0.3-15
		c1.3-3,0.1-6.4-0.7-9.5c-1.2-4.9-1.3-9.5,0.1-14.4c1-3.4,1.4-6.9,3.2-10.2c1.2-2.2,2.9-3.8,4.4-5.6c0.6-0.7,2.9-1,0.4-2.6
		c-1-0.6,0.3-1.1,1-1c3.4,0.9,6.2-1.6,8.6-2.8c6.2-3.2,8.4-3.8,14.6-6c3.4-1.2,7-0.4,10.1-2.1c0.5-0.3,0.9-0.5,1.3,0
		c3.3,4.1,8.7,4.1,13,6.3c2.2,1.1,3.7,3,5.7,4.2c2.8,1.6,5.3,2.6,8.5,2.5c5-0.1,5.6,0.7,5.8,5.6c0.2,4.2-0.5,8.2-1.3,12.2
		c-0.5,2.5-0.9,5.1,0.7,7.7c0.5,0.8-0.1,2.4-0.4,3.6c-1.1,3.7-0.3,7.6-0.5,11.3c-0.2,2.1,2.1,2.3,2.7,4.1c1.9,5.5-0.2,10.6-3.3,13.4
		c-5.7,5.3-3.7,11.2-3.6,17.1c0,1.1,0.8,2.6-0.2,3.2c-3.5,1.9-4.5,6.4-8.3,8.1c-0.8,0.4-3.6,1-1.7,3.3c-0.8,0.5-1.5,0.9-2.3,1.4
		c-2.3,0-3.6,1.2-4.3,3.3c-0.3,0.8-1,1.2-1.8,1.5c-1.9-2.9-0.8-5,1.8-6.7c3.1-2,6.1-4.1,8.8-6.5c5.1-4.6,6.7-10.2,5.6-16.8
		c-0.4-2.3-0.7-4.6,1.4-6.3c2-1.7,3.8-3.6,4.8-6.1c1.8-4.5,1.6-8.5-2.3-11.9c-0.5-1.2-0.2-2.5,0-3.7c0.7-5.3,1.4-10.5,0.2-15.8
		c-0.5-2.1-0.2-4.2,0.6-6.3c0.8-1.9,1.2-3.9,1.5-5.9c0.7-5.3,0.2-5.9-5.1-6.8c-3.8-0.6-7.1-2.6-10.3-4.6c-5.7-3.6-11.3-7.1-18.3-7.6
		c-3.2-0.2-6.5-0.3-9.3,0.9c-6.5,2.8-13.1,5.3-19.3,8.8c-6.1,4.1-8.9,9.9-10,17c-1.2,7.6,0.2,15,1.5,22.4c0,0.8-0.2,1.5-0.6,2.2
		c-3.5,7.8-2.5,12.2,4.1,17.8c1.3,1.7,1.2,3.6,0.9,5.5c-0.5,1.6-0.4,3.3-0.5,4.9C121.4,149,121.9,150.7,119.9,151.1z"/>
	<path class="st24" d="M341.9,249.9c-2.4,7.1-6.1,10-13.3,10.2c-8.3,0.3-12.1-2.1-15-9.3c-0.1-0.3-0.4-0.6-0.7-0.9
		c0-2.7,0-5.5,0-8.2c1.3-0.4,2.2,0.4,3.1,0.9c8.6,4.6,16.9,4.2,24.9-1.3c0.4-0.3,0.9-0.5,1.4-0.4
		C342.5,243.9,341.5,246.9,341.9,249.9z"/>
	<path class="st29" d="M352.5,159.4c5.1-5.3,7.1-11.9,8.4-18.9c5.9,3,7,4.9,6.2,11.4c-0.8,7.2-1.8,14.3-2.6,21.5
		c0,2.9,0.5,5.7-0.3,8.6c-0.3,1.2-0.3,2.5-1.4,3.4c-0.4,0.2-0.8,0.3-1.2,0.2c-1-0.5-1.4-1.4-1.7-2.4
		C357.4,175.3,354.8,167.4,352.5,159.4z"/>
	<path class="st30" d="M296.4,124.5c-0.5,0.9-1.3,1.4-2.3,1.7c-0.4,0.3-0.7,0.3-1.1-0.1c2.3-6.6,1.7-13.5,1.3-20.2
		c-0.8-11.7-3.9-22.9-12.5-31.5c-8.4-8.5-18.9-13.2-30.9-10.7c-11.5,2.3-20.6,9-25.5,20.2c-4.1,9.3-6.6,19-6.5,29.3
		c0.1,5.2-0.1,10.4,0.1,15.6c0.8,7,1.4,14.1,1.4,21.1c0,3.2,0.8,6.2,1.2,9.4c0.3,1.8,0.8,3.7-0.1,5.6c-0.8,0-1.6,0.1-2.2-0.7
		c-0.7-9.7-1.6-19.3-2-29c-0.5-13.5-2-27.1,1.2-40.5c4-16.6,13.3-28.7,30.5-33c17.3-4.3,35.1,5.7,42.4,22.9
		C297.2,97.4,297.5,110.9,296.4,124.5z"/>
	<path class="st31" d="M342.5,240.9c-4.2,4.7-9.9,5.8-15.6,5.8c-5,0-9.8-1.9-13.9-5.1c0.1-1.7-0.7-3.4-0.1-5.2c0.1,0,0.3,0,0.4,0
		c9.8,5.8,19.6,5.4,29.4-0.1C342.6,237.9,342.5,239.4,342.5,240.9z"/>
	<path class="st32" d="M89.2,241.6c-7.6,4.1-15.1,3.9-22.7,0c-0.9-2.5-0.8-5-0.8-7.6c6.6,4.1,13.5,5.6,20.8,1.8
		c4-2.1,2.4,1.4,2.9,2.8C90.2,239.7,90.2,240.7,89.2,241.6z"/>
	<path class="st33" d="M362.4,185.4c0.7-4,1.4-8,2-12c0.1,1.5,0.6,2.6,2.3,2.9c1.8,0.4,2.6,1.9,3,3.5c1.9,6.1-1.6,14-7.4,16.9
		c-0.3-0.4-0.4-0.8-0.4-1.3c0.3-2-0.6-3.9-0.7-5.8C361.3,188.1,361.3,186.6,362.4,185.4z"/>
	<path class="st34" d="M44.5,186.3c0,4-0.1,8.1-0.1,12.1c-3.2-2.5-5-5.8-5.3-10C40.4,186.4,42.3,185.9,44.5,186.3z"/>
	<path class="st35" d="M44.5,186.3c-1.8,0.7-3.8,0.8-5.4,2.1c-0.5,0-1-0.1-1.5-0.1c2.3-3.7,6.7-2.6,9.9-4.4c2-1.1,4.6-1.2,6.6-2.5
		c0.9-0.6,1.3,0.1,1.7,0.7C52.1,183.6,48.3,185,44.5,186.3z"/>
	<path class="st36" d="M362,196c0.1,0.2,0.2,0.5,0.4,0.7c-0.1,2.8-0.1,5.6-0.2,8.4c-1.2-3-0.4-6.1-0.6-9.1
		C361.7,196,361.9,196,362,196z"/>
	<path class="st37" d="M61.9,231c1.6,0,2.5,1,3.1,2.3C63.5,233.2,62.7,232.2,61.9,231z"/>
	<path class="st24" d="M184.4,137.5c-1.5,1.2-1.7,2.8-1.3,4.4c2.5,10.1-1.9,17.1-9.9,22.5c-1.2,0.8-2.2,1.8-3.5,2.3
		c-3.3,1.2-4,3.5-3.5,6.6c0,0.2,0,0.4-0.1,0.6c-1.9-3.2-4.4-2.3-7-1.1c-4.8,2.2-9.5,2-14.3,0c-1.9-0.8-3.8-2.1-6.1-1.7
		c-4.6-4-10.2-6.8-14.3-11.5c-1.4-1.6-2.8-3.2-3.1-5.5c-0.7-3.8-0.4-7.6,0-11.5c0-1.8,0.5-3.6-0.8-5.2c-0.5-3.3-0.2-6.5-0.2-9.8
		c-0.1-9.4,1.5-18.4,6.3-26.6c3.1-5.4,5-5.9,10.3-2.9c8.8,5,18.1,8.2,28.5,7.7c3.9-0.2,7.5-1.1,11-2.5c4.2-1.6,5.8-0.8,6.8,3.6
		c1.2,5.4,1.9,11,1.6,16.6c0,1.7,0,3.3,0,5C184.6,131.7,183.5,134.5,184.4,137.5z"/>
	<path class="st24" d="M228.6,230.1c3.4,0.7,6.6,1.9,9.8,3.3c2.3,5.9,1.2,11.7-0.6,17.4c-1.1,4-2.1,8-3.4,11.9
		c-3.7,11.2-10.1,20.5-19.7,27.5c-5.7,6-12.8,5.5-20,4.1c-2.6-0.5-5.1-1.4-6.5-4c-11.9-8.4-18.4-20.3-21.9-34.1
		c-0.5-1.8-0.5-3.7-1.6-5.4c-1.3-5.8-2.3-11.5-0.6-17.4c2.3-1.2,4.7-2.2,7.3-2.5c2.5-0.3,4.8-1.1,7.2-1.8c0.9-0.3,1.9-1.1,2.7,0
		c1,1.3-0.4,2-0.9,2.8c-0.4,0.6-0.9,1.2-1.4,1.7c-0.5,0.5-1.1,1-1.7,1.5c-1.5,3-1.1,4.1,1.9,4.1c2.9-0.1,5.8,0.3,8.6,0.7
		c3.8,0.5,4.5-0.7,3.1-4.3c-1-2.7-3.4-3.6-5.6-4.7c-0.9-0.4-2.2-0.7-2.1-1.9c0.1-1.5,1.5-1.3,2.6-1.5c6.2-1.1,12.4-1.8,18.7-1.5
		c5.1,0.3,10.1,1.6,15.2,1.8l0,0c1.1,1.1,2.7,0,3.8,0.8l0,0C225.1,229,226.6,230.3,228.6,230.1z"/>
	<path class="st4" d="M89.2,241.6c0.1-1,0.1-2,0.2-3c0.2-4,2.9-6.1,5.5-8.6c3.3-3.3,5.8-7.3,8.7-11c1.5-0.5,3-0.2,4.5,0.3
		c10.2,3.2,20.6,5.2,31.2,6.1c1.2,0.1,2.2,0.4,3.2,1.1c2.7,4.6,2.5,8.2-0.8,12.2c-2,2.5-4.7,4.2-7.2,6.1c-8.8,7-7.7,17.9,2.3,23
		c0.7,0.3,1.3,0.7,2,1.1c7.6,4.4,7.7,9,0.4,13.8c-2,1.3-4.1,2.6-4.4,5.3c-1.1-0.2-1.2-1.1-1.5-2c-0.5-1.9-1.1-3.9-1.7-5.8
		c-2.9-10.4-8.5-17.8-20.1-19.1c-4-0.4-7.8-1.8-11.7-2.8c-0.7-0.3-1.4-0.5-2.2-0.8c-3.5-0.7-6.7-1.9-9.1-4.7
		C88.5,249.1,89.9,245.4,89.2,241.6z"/>
	<path class="st25" d="M142.6,226.5c-11.3-0.2-22.3-2.6-33.2-5.7c-1.9-0.6-3.8-1.2-5.7-1.8c3.3-6.3,5.7-13,7-20
		c2.4-3.3,3.6-7.3,6.2-10.6c4,1.9,4.5-1.1,5.2-3.7c4.9-3.6,10.7-3.8,16.5-3.9c1.3,0.4,2,1.4,2.6,2.6c2.4,4.7,6.3,6.4,11.4,6.4
		c1.5,0,3.2-0.8,4.6,0.6c1.7,1.6,1.3,2.6-0.7,3.6c-2.2,1.1-4.5,1.5-6.8,2c-9.8,1.8-15.3,16.4-9.7,25.7
		C140.8,223.2,141.6,224.9,142.6,226.5z"/>
	<path class="st38" d="M221.7,164.8c-0.8-4-2-8.1-2.2-12.1c-0.3-8.1-0.8-16.2-1.6-24.3c1.6-2.4,3.2-1.7,4.8,0
		c1.5,2.2,2.7,4.7,4.7,6.5c0.4,0.4,0.7,0.9,0.9,1.4c1.9,7.6,4.2,15.1,9.1,21.5c2.2,2.8,4.4,5.5,7.4,7.5c0.8,0.7,1.5,1.4,1.8,2.4
		c0.8,2.7,0,5.5,0.9,8.1c0.2,1.4,0.3,2.7-0.7,3.9c-3.5,1.5-6.7,0.6-9.9-1C233.6,172,227.8,168.3,221.7,164.8z"/>
	<path class="st39" d="M246.8,179.3c0-1.2,0-2.5,0-3.7c-0.7-1.7,0.4-2.4,1.6-1.8c6.2,3,12.2,2,18.2-0.2c0.2-0.1,0.5,0.1,0.7,0.2
		c1.3,1.3,1,2.9,0.9,4.5c-0.1,0.4-0.2,0.7-0.4,1c-0.8,1.2-1.9,2.4-0.9,4c0.2,0.3,0.4,0.6,0.6,0.8c1,1.4,2.4,2.2,3.9,2.9
		c4.4,2.1,4.4,2.1,1.2,5.9c-4.6,3.9-10.2,4.4-15.8,4.9c-6.6-1.3-12.1-4.4-15.7-10.2C244.7,186.1,245.9,182.8,246.8,179.3z"/>
	<path class="st27" d="M157.1,190.3c-9.7,1.6-13.4-0.2-18.2-8.9c-0.8-2.5-1.7-5-0.2-7.6c1.1-0.4,2,0.2,2.8,0.7
		c6.5,3.6,13.1,3.9,20,0.8c0.9-0.4,2.3-2,3.3,0.2c-2.1,3.5-4,7-4.8,11.1C159.7,188.4,158.9,189.8,157.1,190.3z"/>
	<path class="st40" d="M188.1,290.4c8.9,5.4,17.7,5.1,26.5-0.1c-0.2,2.8-0.5,5.6-0.7,8.4c-4.4,0.6-8.2,3.7-13.1,3.1
		c-3.1-0.3-6-0.8-8.7-2.1c-2.7-1.3-3.4-0.5-3.2,2.1C187.6,298.1,188.6,294.2,188.1,290.4z"/>
	<path class="st41" d="M164.8,175.6c-2.4-0.2-4.2,1.5-6.4,2.1c-7.1,2-13.6,0.5-19.5-3.8c-0.9-1-1-2-0.1-3c0.4-2.1,1.9-0.9,2.6-0.6
		c7.3,4,14.6,4,21.8-0.2c1.5-0.9,2.3-0.5,2.3,1.4c0,0.9-0.2,1.8,0.7,2.4C165.9,174.8,165.4,175.2,164.8,175.6z"/>
	<path class="st42" d="M219.5,227.9c-7.8,1.2-15.2-2.7-22.9-1.5c-4.4,0.7-8.8,1.3-13.2,2.3c3.8,1.8,7.7,3.2,8.9,7.8
		c0.8,3.3-0.1,4.8-3.5,4.5c-3.5-0.4-6.9-1.5-10.5-0.7c-1.5,0.3-3.1-0.9-3.4-2.5c-0.3-1.7,0.4-3.2,2.3-3.8c0.4,0.6,0.4,1.2,0.3,1.8
		c0,0.3-0.1,0.6-0.1,1c0.7,2.4,2.3,1.1,3.7,1c2.1-0.5,4,0.3,6,0.7c0.9,0.2,1.8,0.5,2.5-0.4c0.7-0.9,0.3-1.9-0.2-2.8
		c-1.4-2.5-3.6-3.3-6.3-3.4c-1.2,0-2.5,0.6-3.7,0c0.1-1.1,1.1-1.5,2.5-2.8c-4.2,0-7.1,2.8-10.5,1.7
		C187,225.3,203.1,223.7,219.5,227.9z"/>
	<path class="st33" d="M163.9,233.5c0.2,5.8,1.2,11.6,0.6,17.4c-5.2-4.2-6.8-8.8-5.8-17.2C160.7,235.5,162.2,233.9,163.9,233.5z"/>
	<path class="st43" d="M237.7,250.9c0.1-5.8,1.1-11.6,0.6-17.4c0.6,0.2,1.2,0.7,1.8,0.7c4.5-0.3,3.9,2.8,3.7,5.5
		C243.4,244.2,241.6,248.1,237.7,250.9z"/>
	<path class="st44" d="M246.8,179.3c0.2,6.7-0.2,7.3-5.8,8.4c-1.7-2.9-3.2-5.8-4-9.1C240.2,178.8,243.5,179,246.8,179.3z"/>
	<path class="st4" d="M168,171.9c-1.3-1.8,0.3-2.7,1.3-3.5c0.7-0.5,2.1-1.8,2.9,0.1C170.8,169.6,169.4,170.7,168,171.9z"/>
	<path class="st45" d="M228.6,230.1c-2.2,1.2-3.7-0.6-5.4-1.4C225.1,228.7,226.9,229.1,228.6,230.1z"/>
	<path class="st40" d="M213.4,304.1c0-1.6-0.6-3.2,0.5-4.6C214,301.1,214.3,302.7,213.4,304.1z"/>
	<path class="st45" d="M223.3,228.7c-1.3-0.1-2.8,0.6-3.8-0.8C220.7,227.9,222.1,227.7,223.3,228.7z"/>
	<path class="st46" d="M138.7,171c0,1,0.1,2,0.1,3c-0.7,2.5,1.3,5,0,7.5c-5.7,0.6-11.4,1.5-16.9,3.3c0.8-8.7,0.9-17.4-0.6-26.1
		c-0.2-1-0.5-1.9-0.7-2.9c0.3-0.5,0.5-1.2,1.4-0.7c3,5.4,7.9,8.9,13,12.1C136.7,168.1,138,169.2,138.7,171z"/>
	<path class="st47" d="M63.6,181.5c1.8,0.2,3.1,1.2,4,2.6c0.8,1.3,1.6,2.7,0.7,4.2c-0.9,1.6-2.5,0.9-3.7,0.5
		c-1.9-0.5-3.7-0.6-5.6-0.4c-3.8,0.5-4.5-0.5-3-4c0.3-0.7,0.5-1.4,0.8-2.1C58.8,181.1,61.2,181.8,63.6,181.5z"/>
	<path class="st48" d="M97,181.6c1,1.1,2.3,1.8,2.9,3.3c1,2.7,0,3.9-2.8,3.5c-2-0.3-4-0.3-6,0.3c-1.3,0.4-2.9,1.2-3.8-0.3
		c-0.9-1.5-0.5-3.2,0.7-4.6c0.8-0.9,1.9-1.6,2.9-2.4c0.4-0.4,0.9-0.4,1.4-0.1C93.9,181.5,95.4,181.6,97,181.6z"/>
	<path class="st49" d="M116.8,188.5c-1.1,4.1-2.6,7.9-6.2,10.6c0.9-4.2,0.9-8.4,0.7-12.7C113.2,186.9,115.2,187.2,116.8,188.5z"/>
	<path class="st50" d="M84.8,177c-3.4-4-3.1-9.1-3.7-13.9C82.3,167.8,83.6,172.4,84.8,177z"/>
	<path class="st51" d="M122,155c-0.5,0.2-0.9,0.5-1.4,0.7c-0.3-1.5-0.5-3.1-0.8-4.6c1.7-2.6-0.5-5.8,1.3-8.3
		C121.5,146.9,120.8,151,122,155z"/>
	<path class="st52" d="M92.3,181.5c-0.5,0-0.9,0-1.4,0.1c0.4-0.7,0.5-1.4,0-2.1c1.3-0.3,2.2,0.6,3.7,0.9
		C93.6,180.8,92.9,181.1,92.3,181.5z"/>
	<path class="st53" d="M352.5,159.4c1.8,0.5,1.6,2.2,2,3.4c2.5,7.5,4.8,15,7.2,22.6c0.7,2.4,0.1,4.7-0.7,6.9c-1.3,1.9-1,4.3-1.7,6.4
		c-1,3-2.1,5.9-5.2,7.3c-2.5,1.8-4.8,0.7-7-0.8c-1.3-0.9-2.5-2.1-4-2.9c-4.4-2.6-8.4-2.5-12.3,0.7c-2.1,1.7-3.7,2-6.1,0.5
		c-6.4-3.9-9.5-3.6-15.5,0.9c-2.6,2-5.2,3.7-8.5,1.4c-1.6-0.8-2.7-2.2-3.7-3.7c-1.8-3.8-3.1-7.7-4-11.7c-0.2-2.2-0.7-4.4,0.7-6.5
		c1.6-5.1,3.2-10.1,4.7-15.2c0.7-2.5,2-4.1,4.7-4.8c2.8-0.7,5.4-1.9,8.9-3.3c-1.7,4.1-3.1,7.3-4.9,11.4c4.8-1.7,8.8-3.1,12.7-4.5
		c1.4,1-1.2,2.6,0.5,3.3c1.1,0.5,2.1-0.6,3.1-1.1c1.3-0.7,2.6-1.5,3.9-2.3c1.3-1.5,3.2-2.2,4.8-3.3c0.8-0.6,1.9-0.8,2.7,0
		c0.9,0.9,0.8,2-0.2,2.9l0,0c0.1,1.5-1.9,4.4,2.1,3.1c0.4-0.6,1.1-0.7,1.7-0.8c2.5-1.6,5.1-3.2,7.8-4.4
		C349,163.6,350.9,161.7,352.5,159.4z"/>
	<path class="st38" d="M267.3,179.3c0-1.8-0.1-3.5-0.1-5.3c-1.5-2.2-0.7-4.3,0-6.4c1.4-2.8,4.3-4.1,6.2-6.4
		c3.6-4.1,6.1-8.8,8.9-13.4c1.5-1.2,1.3-3.6,3.3-4.5c0.4-0.1,0.7-0.1,1,0c2.3,0.9,2.7,2.3,1.5,4.4c-0.6,1-1.7,2.1-0.3,3.3
		c0.6,0.3,1.2,0.7,1,1.4c-2.6,7.5-0.1,14.8,1.1,22.1c-0.9,1.5-2.6,1.8-4,2.6c-5,2-10.3,2.3-15.5,3
		C269.3,180.3,268.2,180.3,267.3,179.3z"/>
	<path class="st54" d="M293.2,196.8c-3-0.7-4.3-3.3-6.1-5.3c-4.1-4.9-4.2-10.4-0.4-14.7c1.1-0.7,2.1-1.5,3.4-0.5
		c0.8,2.5,1.6,5.1,2.3,7.6c1.7,2.1,0.9,4.6,1.3,7C294,192.9,294.4,194.9,293.2,196.8L293.2,196.8z"/>
	<path class="st55" d="M293.2,126.1c0.3,0,0.6,0.1,0.9,0.1c-2.8,3,0.7,2.8,1.9,3.8c0.7,1-0.1,1.4-0.7,1.7c-2.1,1.1-4,2.5-6.3,3.2
		c-0.4-0.1-0.6-0.4-0.8-0.7c0.5-3,2.2-5.5,3.3-8.2C292.1,125.6,292.7,125.6,293.2,126.1z"/>
	<path class="st56" d="M288.7,134.5c2.5-1.4,5.4-2.2,7.3-4.5c0.3,1.6,0.4,2.2-1.3,2.6c-5.3,1-3.8,6.4-6.4,9.1
		c-0.9,1,1.8,1.4,1.7,2.8c-1.5,0.5-2.5-0.5-3.7-1l0.1,0c-0.6-0.4-0.7-1.2-0.4-1.7C287.5,139.5,287.7,136.9,288.7,134.5z"/>
	<path class="st57" d="M334.9,167.1c-0.2-0.9,0.6-2-0.4-3c-2.3,1.1-4.7,2.2-7,3.3c1.7-2.1,3.4-4,6.1-4.9c1.9-0.6,3.2,0,3.7,1.9
		C337.9,166.5,336.5,166.9,334.9,167.1z"/>
	<path class="st58" d="M286.4,143.5c1.2,0.3,2.4,0.7,3.7,1c0,2.4-2.4,4.1-2.1,6.6c-2.6-0.4-1.1-1.9-0.5-2.7
		C288.8,146.3,288.3,144.8,286.4,143.5z"/>
	<path class="st57" d="M346.6,164.9c-2.3,2-4.6,3.9-7.8,4.4C340.6,166.4,343.5,165.5,346.6,164.9z"/>
	<path class="st59" d="M293.3,190.7c-0.3-2.3-0.6-4.5-0.9-6.8c0.5,0,1,0,1.5,0c0.1,2.3,0.2,4.5,0.2,6.8
		C293.8,190.9,293.5,190.9,293.3,190.7z"/>
	<path class="st57" d="M337.1,170.2c-0.7,1.1-2,0.7-3.2,1.8c-0.2-2.1,0.2-3.5,1-4.9C335.1,168.5,334.6,170.3,337.1,170.2z"/>
	<path class="st60" d="M290,176.3c-1,0.3-2,0.5-3,0.8c-0.3-0.2-0.6-0.4-0.7-0.7c1-1,2.3-1.2,3.6-1.6C290,175.2,290,175.7,290,176.3z
		"/>
	<path class="st61" d="M60.1,221.3c1.3-2,4.1-1.4,2.6-3.9c-0.5-0.9,1-0.8,1.5-0.6c2.4,1,4.6,0.8,6.8-0.7c0.4-0.3,1.3-0.4,1.8-0.2
		c4.1,1.6,8.7-1.3,12.8,1.3c0.8,0.5,2.2,0.1,3.4,0.1c1,0,2.3-1.4,3,0.1c0.7,1.4-0.5,2.6-1.4,3.6c-5.9,6.2-14.9,7.8-22.8,2.6
		C65.7,222.2,64,220,60.1,221.3z"/>
	<path class="st62" d="M300.8,205.7c3.1,0.9,5.5-0.1,7.9-2.2c6.1-5.3,10.5-5.4,17-0.8c1.1,0.8,1.8,1.7,3.4,0.3
		c6-5.2,11.1-5.1,17.1,0.2c2.3,2,4.6,3.4,7.8,2.7c-3.1,5.5-14.8,11.1-20.4,9.8c-0.2-0.1-0.6-0.1-0.7-0.3c-3.7-4.8-7.2-2.2-11.2-0.1
		c-3.2,1.7-6.8,0-9.8-1.4C307.7,212,303.9,209.3,300.8,205.7z"/>
	<path class="st63" d="M293.3,190.7c0.3,0,0.5,0,0.8-0.1c1,3.8,2.1,7.6,3.1,11.4c-1.7-0.8-1.6-2.7-2.2-4.2c-0.4-0.9-0.5-1.7-1.7-1.1
		C293.2,194.7,293.2,192.7,293.3,190.7z"/>
	<path class="st64" d="M360.9,192.3c0.2-2.3,0.5-4.6,0.7-6.9c0.3,0,0.5,0,0.8,0c-0.1,3.5-0.3,7.1-0.4,10.6c-0.1,0-0.3,0-0.4,0
		C361.4,194.8,362,193.4,360.9,192.3z"/>
	<path class="st65" d="M286.3,176.3c0.2,0.2,0.5,0.5,0.7,0.7c-3.8,4.8-1.7,9.6,0,14.4c-3.3-0.8-6.6-1.6-9.9-2.4
		c-4-0.8-7.9-1.8-10.6-5.2l0,0c-1-1.7-0.1-3.1,0.8-4.4c0,0-0.1-0.1-0.1-0.1C273.8,178.9,280.1,178,286.3,176.3z"/>
	<path class="st66" d="M266.6,183.8c3.1,2.7,7,3.6,10.6,5.2c-1.6,1.2-2.7,3.1-4.7,3.9c-0.6-1,0.5-1.3,0.8-1.8c1.1-1.5,1.1-2.2-1-2.8
		C269.9,187.6,267.4,186.8,266.6,183.8z"/>
	<path class="st67" d="M88.6,252.9c3,1.6,6.1,3.1,9.1,4.7C93.4,258,90.2,256.4,88.6,252.9z"/>
	<path class="st68" d="M183.7,123.8c0.2-5.7-0.5-11.3-1.6-16.9c-0.4-2.2-1-4.4-4.2-2.9c-11.6,5.5-23.1,3.5-34.4-1.1
		c-3-1.2-5.9-2.9-8.7-4.6c-2.5-1.5-4.3-1.3-6,1.2c-5.8,8.5-7.5,18-7.6,28c-1.4,1.9-2,0.3-2.6-0.7c-1.6-2.9-2-6-1.5-9.3
		c-0.1-4.2-1.4-8.1-1.7-12.3c-0.9-11.1,1.5-20.7,10.4-28c9.9-4.5,19-11.6,31-9.8c5.7,0.8,10.4,3.7,15.1,6.6
		c4.7,2.9,9.3,6.2,15.3,5.6c1.8-0.2,2.3,1.1,2.4,2.7c0.2,3.3,0.2,6.6-1.2,9.7c-1.3,2.9-1.5,5.7-0.9,8.8c1.3,6.2-0.3,12.3-0.7,18.4
		c0.9,2.1-0.1,3.7-1.3,5.3C184.6,125.1,184.1,124.5,183.7,123.8z"/>
	<path class="st69" d="M117.5,117.8c0.3,3.1,0.9,6.2,2.2,9.1c0.4,1,0.8,1.1,1.6,0.7c-0.3,3.3,1,6.8-0.8,10
		c-6.3-3.8-8.4-11.8-4.5-17.8c0.4-0.6,0.6-1.4,0.9-2C117.1,117.4,117.3,117.4,117.5,117.8z"/>
	<path class="st69" d="M185.2,124.6c0.5-1.8,1.1-3.6,1.6-5.4c3.5,2,4.6,4.6,3.5,9.2c-0.9,3.7-2.5,7.1-5.9,9.1
		c-2.4-0.6-1.3-2.6-1.4-4c0-1.4,0.4-2.9,0.7-4.4C184.7,127.8,183.9,125.8,185.2,124.6z"/>
	<path class="st70" d="M117.5,117.8c-0.2,0-0.4,0-0.6,0c-2.3-9.6-3.5-19.3-0.1-29c1.7-4.8,4.4-9,9.1-11.5c-1,2.6-3.2,4.1-4.9,6.1
		c-3.3,4-4.6,8.5-5,13.5C115.4,103.9,116.5,110.8,117.5,117.8z"/>
	<path class="st71" d="M293.2,126.1c-0.5,0-0.9,0-1.4,0c-1.9-0.9-3.5-2.1-5.2-3.1c-2.3-2-4.9-3.6-7-5.9c-3.7-4.7-5.5-10.3-6.9-15.9
		c-0.3-2.1-1.4-4.1-1.5-6.2c-1.1,3.7-2.1,7.4-3.9,10.8c-4.1,8-11.2,12-19.5,14.4c-3.7,1-7.1,2.7-10.7,3.8c-2.9,0.6-5.8,1.5-8.7,2.3
		c-2.3,0.4-4.2,1.4-5.9,2.9c-1.2-1.8-2.8-1.9-4.5-0.8c0-7-0.4-13.9,0.1-20.9c0.3-4.6,0.7-9.3,3.2-13.7c0.9-1.7,0.2-4.1,1.1-6.3
		c4-9.1,9.5-16.8,18.6-21.3c6.1-3,12.7-5.6,19.5-3.8c5.9,1.6,11.8,2.6,17.1,7.2c5,4.3,9.2,8.7,12.1,14.3c3.5,6.7,5.2,14.1,5.8,21.5
		c0.4,4.4-0.1,8.9,0.1,13.3C295.6,121.5,295.4,124.1,293.2,126.1z"/>
	<path class="st72" d="M167.7,158c-1.1,1.7-2.7,2.2-4.6,2.3c-6.4,0.7-12.7,0.2-19.1,0.3c-1,0-2-0.3-2.9,0.4c-1.5-1-3.1-2-4.6-3
		c1.6-3.3,4.9-3.8,7.8-4.9c6.7-2.5,13.2-1.4,19.6,1.3C165.5,155.1,167.6,155.6,167.7,158z"/>
	<path class="st73" d="M136.4,148.2c9.4,0,18.9,0,28.3-0.1c1.1,0,2.3-0.2,3.2,0.8c0.6,2.3-1,3.2-2.7,3.8c-1.3,0.5-2.8,0.5-4.1,0.3
		c-5.7-0.8-11.3-0.8-17-0.1c-2.6,0.3-5.7,0.8-7.7-1.9C135.8,150,135.9,149.1,136.4,148.2z"/>
	<path class="st74" d="M136.6,150.3c1.1,1.1,2.4,1.7,4,1.7c7.7-0.1,15.5,0,23.2,0c2.2,0,3.7-0.7,4.1-3c1.9-0.8,3.4-0.1,4.5,1.4
		c1.2,1.5,0,2.8-0.6,4.1c-0.9,1.7-2.3,2.9-4.1,3.6c-7.2-5.4-15.1-6.5-23.6-3.9c-1.4-0.6-2.6,0.4-4,0.2
		C137.9,154,135.6,153.5,136.6,150.3z"/>
	<path class="st75" d="M166.7,118.6c2.3,0.3,4.2,1.3,5.3,3.4c0.6,1,0.7,2.2,0.1,3.3c-0.7,1.2-1.8,0.4-2.7,0.2
		c-1.8-0.3-3.5-0.1-5.2,0.4c-1.1,0.3-2.6,0.9-3.4-0.4c-0.9-1.4-0.2-2.7,0.5-3.9C162.6,119.6,164.6,119,166.7,118.6z"/>
	<path class="st76" d="M140.9,126c-2-0.6-4.4-1-7-0.3c-2.1,0.5-2.3-1.3-1.9-2.7c0.9-2.9,3-4.5,5.9-4.3c2.9,0.2,5.3,1.7,6,4.9
		C144.4,125.6,143.3,126.4,140.9,126z"/>
	<path class="st77" d="M141.1,161c0.5-1,1.3-1.5,2.4-1.5c5.9,0,11.9,0,17.8,0.1c0.6,0,1.2,0.5,1.7,0.7c-4.9,3.8-10.6,3.4-16.2,2.5
		C144.9,162.5,143,161.6,141.1,161z"/>
	<path class="st78" d="M136.6,150.3c0.2,2.3,1.5,3.1,3.7,3.2c1.3,0.1,2.7-0.5,3.8,0.6c-2.7,0.9-5.2,2.2-7.6,3.9
		c-0.6-0.4-1.3-0.8-1.8-1.3c-4.5-4.3-4.1-6.5,1.7-8.5C136.5,148.9,136.5,149.6,136.6,150.3z"/>
	<path class="st79" d="M185.2,124.6c0.1,1.7-0.1,3.3-1.5,4.5c0-1.8,0-3.5,0-5.3C184.2,124,184.7,124.3,185.2,124.6z"/>
	<path class="st80" d="M217.1,276.7c-1,1.9-3,2.6-4.6,3.7c-6-0.7-12-0.2-17.9-0.4c-1.6,0-3.2,0.1-4.8-0.3c-2.4,0-3.9-1.4-4.7-3.6
		c1.8-3.5,5.3-4.4,8.6-5.5c7.3-2.4,14.2-1.5,20.6,2.7C215.6,274.2,216.9,275,217.1,276.7z"/>
	<path class="st81" d="M185,266c0.4-2,2-1.6,3.3-1.6c9.6,0,19.2,0,28.8,0c0.8,3.3-0.1,5-3.5,5.5c-2.9,0.5-5.8,0.1-8.7-0.2
		c-5.4-0.5-10.8,0.6-16.2,0.2C186.6,269.6,184.5,269.1,185,266z"/>
	<path class="st82" d="M188.3,269.2c8,0,16.1-0.2,24.1-0.1c3.4,0,5-1.3,4.8-4.6c5.6,1.7,6.5,4.4,3.2,9.1c-0.9,1.2-1.8,2.4-3.2,3.1
		c-10.4-8.4-19.6-8.6-32-0.6c-0.5-0.3-1-0.6-1.5-0.8c-0.9-1.9-0.9-3.2,1.8-3.6c2.5-0.4,4.6-2.3,6.9-1.6c1-0.1,0.2-0.7,0.5-0.3
		c0.1,0.1,0,0.3-0.3,0.2C191.1,269.7,189.3,271.3,188.3,269.2z"/>
	<path class="st83" d="M179.2,232c5.2-2,9.9-0.5,11.4,3.7c0.5,1.2,0.8,2.4-0.1,3.6c-1,1.3-2.2,0.7-3.4,0.4c-2.1-0.5-4.1-1.1-6.3-1
		c-2,0.3-4.4,1.1-4.1-2.5l0,0c0.8-0.9,0.8-2.2,1.6-3C178.6,232.9,178.9,232.4,179.2,232z"/>
	<path class="st84" d="M189.8,279.7c2.7-1.6,5.6-0.7,8.4-0.8c3.6-0.2,7.2,0,10.9,0c1.4,0,2.8-0.1,3.5,1.5
		c-6.3,3.2-12.7,4.1-19.4,1.6C191.9,281.5,190.4,281.2,189.8,279.7z"/>
	<path class="st85" d="M188.3,269.2c1.5,1.3,3.4,0.1,5.2,1.1c-3.8-1.6-5.4,3.6-9.2,2.5c-0.9-0.3-0.3,1.7-0.7,2.5
		c-2-1.4-3-3.4-3.6-5.6c-0.4-1.6,0.2-3.1,1.6-4c1.1-0.8,2.5-1.5,3.5,0.3C185.2,268,186.5,268.8,188.3,269.2z"/>
	<path class="st86" d="M221.6,238.7c-2.2-0.1-4.2,0.4-6.3,0.9c-1.3,0.3-2.7,1.1-3.7-0.4c-0.9-1.3-0.4-2.7,0.2-3.9
		c0.4-0.9,1.1-1.7,1.6-2.5c2.4-2.2,5.1-3.2,8.2-1.5c1.3,0.9,2.8,1.7,3.5,3.2c0.7,1.4,1.5,2.9,0.4,4.2
		C224.4,240.2,222.9,239.4,221.6,238.7c0.8-1.1,2-2,1-3.6c-1.2-1.9-3.2-1.6-5.1-1.5c-1.5,0.1-2.7,0.8-3.2,2.3
		c-0.4,1.3,0.5,1.5,1.5,1.4c1.1-0.1,2.2-0.4,3.4-0.3C220.2,237.1,221.8,236.8,221.6,238.7z"/>
	<path class="st45" d="M221.6,231.3c-3-1.1-5.6,0.1-8.2,1.5C215.9,229.6,218.6,229.1,221.6,231.3z"/>
	<path class="st87" d="M178.3,233.3c-0.1,1.2-0.5,2.4-1.6,3c0.1-0.7,0.3-1.4,0.4-2.1C177.5,233.9,177.9,233.6,178.3,233.3z"/>
	<path class="st24" d="M247.5,119.3c5.3-2.1,11.1-3.6,14.9-8.4c1.4-1.8,2.7-3.6,4.1-5.3c1-1.2,1.5-2.5,2-3.9c1.1-3.1,2-3.1,4.5-0.5
		c0.4,3.2,1.5,6.3,2.2,9.4c0.5,2.2,2.7,4.9,5.2,6.4c2.2,1.8,4.5,3.6,6.7,5.4c2,4.2,1.2,8.5,0.5,12.7c-0.4,4.7-2.6,8.8-4.4,13.1
		c-3.9,7.3-8,14.3-15.1,19c-5.3,6.3-16.8,6.3-22.1,0c-0.5-0.5-1-0.9-1.5-1.4c-0.6-0.6-0.5-1.4-1.6-1.8c-3-1.2-2.4-5.1-4.4-7.2
		c-0.3-0.3,0.1-1.3-0.3-1.4c-7.2-2-6.4-9.1-8.7-14.2c-0.8-1.6-1-3.6-1.8-5.3c-0.2-0.3-0.5-0.5-0.7-0.8c-1.1-3.4-2.7-6.8,0.8-9.8
		c3-0.8,6-1.6,8.9-2.4c0.9,0.6,1.8-0.2,2.8,0c1.3-0.2,2.6-0.3,3.9-0.2C247.2,124.4,247.3,121.7,247.5,119.3z"/>
	<path class="st88" d="M246,167.2c7.4,4.8,14.7,4.8,22.1,0c-0.3,2.3-0.5,4.6-0.8,6.9c-6.3,2.8-12.6,4.5-19.1,0.4
		c-1-0.6-1.2,0.4-1.4,1.1C245.3,172.9,246.4,169.9,246,167.2z"/>
	<path class="st89" d="M227.7,136c1.4,1.3,2,3,2.4,4.9c0.8,4.3,2.9,8.2,4.7,12.1c0.2,0.4,0.6,1.1,1,1.1c4.9,0.1,4.6,4.1,5.6,7.3
		c0.2,0.8,1.1,2,1.5,2c2.4-0.3,1.5,1.3,1.6,2.4c-6.7-4.1-10.2-10.7-13.3-17.5C229.3,144.4,227.9,140.3,227.7,136z"/>
	<path class="st90" d="M227.8,125.4c-2.1,3.1-0.2,6.6-0.8,9.8c-2.5-1.3-3.4-3.8-4.6-6.1C222.7,125.7,225.8,126.3,227.8,125.4z"/>
	<path class="st66" d="M267.4,179.4c-0.3,1.5-0.5,3-0.8,4.4C264,181.8,265.3,180.6,267.4,179.4z"/>
	<path class="st87" d="M176.7,236.2c0.3,2.6,2.3,2.3,4.1,2.5C176.8,240,176.3,239.7,176.7,236.2z"/>
	<path class="st91" d="M347.2,183.1c-2.3-0.5-4.8-0.1-7.4,0.6c-2.6,0.7-3.5-0.8-2.9-3.2c0.9-3.4,3.6-4.8,6.8-5
		c3.1-0.1,5.3,1.7,6.3,4.5C350.6,181.9,350.4,183.7,347.2,183.1z"/>
	<path class="st92" d="M312,175.5c2.6,0.4,5.2,1.4,6.3,4.6c0.9,2.9-0.3,4.3-3.1,3.5c-2.4-0.6-4.7-0.9-7.1-0.5
		c-3.1,0.6-3.1-1.2-2.6-3.3C306,177.5,308.9,175.5,312,175.5z"/>
	<path class="st58" d="M283.1,148.1c0.9-4.3,2.9-8.3,3.3-12.8c0.6-0.6,1.1-1.1,2-1c0,0,0.2,0.2,0.2,0.2c2,3.7-2,5.9-2.2,9
		C284.3,144.2,285.1,147.2,283.1,148.1z"/>
	<path class="st93" d="M288.5,134.3c-0.7,0.3-1.4,0.7-2,1c1.3-4.3,0.4-8.7,0.7-13c1.4,1.4,4,1.5,4.7,3.8
		C291.9,129.4,289.6,131.6,288.5,134.3z"/>
	<path class="st94" d="M76.5,218.1c4.6-1.8,9.2,0.4,13.9,0c-4.2,7.6-13.2,9.5-20.8,4.6c-0.6-0.6-1.4-1.1-1.9-1.8
		c-0.9-1.1-0.3-2.3,0.7-2.3C71.1,218.8,73.7,216.6,76.5,218.1z"/>
	<path class="st95" d="M76.5,218.1c-1.8-0.2-3.4,0.4-5.1,0.7c-4.1,0.7-4.1,0.7-1.8,4c-2.3-0.6-3.5-2.5-5.4-4.6
		c3.6-0.1,6.6,0,9.4-1.2C74.7,216.5,75.7,217.2,76.5,218.1z"/>
	<path class="st96" d="M239.2,123.7c-0.9,0.2-1.9,0.6-2.5-0.6c3.5-1.5,7-2.9,10.8-3.8c0.8,1.4,1.6,3.1,0.6,4.5
		c-1.3,1.7-2.9,0-4.4-0.1C242.2,123.3,240.7,123.2,239.2,123.7z"/>
	<path class="st97" d="M280.4,116.9c-2.8,0.1-2.8-3.5-4.4-3.9c-3.9-0.8-1.9-3-1.8-4.8c0.2-2.6-2.1-4.6-1.5-7.2
		c0.2-0.4,0.5-0.3,0.7,0C275.1,106.5,276.8,112.1,280.4,116.9z"/>
	<path class="st98" d="M273.4,101c-0.2,0-0.5,0-0.7,0c-2.1-1.2-3.5-1.2-4,1.6c-0.2,1.2-0.8,2.4-2.2,2.9c1.5-4.3,3.5-8.5,4.8-13.1
		C272,95.2,272.7,98.1,273.4,101z"/>
	<path class="st99" d="M221.6,238.7c-1.9-1.7-4-0.7-6-0.3c-0.9,0.2-2.1,0.5-2.7-0.6c-0.6-1-0.1-1.9,0.5-2.8
		c2.1-3.2,8.3-3.8,10.2-0.9C225.2,236.7,224.7,238,221.6,238.7C221.5,238.7,221.6,238.7,221.6,238.7z"/>
	<path class="st100" d="M247.6,158.8c-1.9-0.4-3.4-1.5-4.6-3c3-3.2,6.7-4.8,10.9-5.6c1.8-0.1,3.7-0.1,5.5,0c2.8,0.4,5.3,1.5,7.7,2.9
		c1.3,0.7,2.7,1.4,2.5,3.3c-0.7,1.6-2.1,2.1-3.7,2.4C259.8,159.4,253.7,159.3,247.6,158.8z"/>
	<path class="st46" d="M243.7,146.6c7.7,0,15.4-0.1,23.1-0.1c1.3,0,2.6-0.1,2.9,1.6c0.1,1.5-1,2.1-2.2,2.4c-7.3-0.1-14.7,0.1-22,0
		C243.7,149.8,242.6,148.7,243.7,146.6z"/>
	<path class="st101" d="M265.9,124.5c-1.3-3.5-0.1-6,3.5-7.2c3.1-1.1,6.8,0.7,7.6,3.7c0.6,2.1,0,3.2-2.4,2.8
		c-2.2-0.4-4.5-0.5-6.6,0.7C267.3,125.2,266.6,125.2,265.9,124.5z"/>
	<path class="st102" d="M268,149.8c0.9-0.2,1.4-0.8,1.7-1.7c0.7-0.8,1.2-2.1,2.7-1.1c1.3,0.8,2.1,2,1.6,3.5
		c-0.8,2.4-1.9,4.7-4.4,5.9c-2.5-3.2-6.2-4.1-9.9-5.2c-0.3-0.4-0.2-0.8,0.2-1C262.6,149.8,265.4,150.4,268,149.8z"/>
	<path class="st103" d="M243.7,146.6c0,1.3,0.2,2.5,1.6,3.1c2.7,0.8,5.4,0.1,8.1,0.4c0.4,0.3,0.5,0.6,0.2,1c-4,0.5-7,3.4-10.7,4.7
		c-0.8-1.1-1.8-2-2.5-3.2C238.6,149.3,239.7,147.2,243.7,146.6z"/>
	<path class="st104" d="M247.6,158.8c6.1-1.4,12.2-1.2,18.3-0.1C261.1,162.8,253.4,162.9,247.6,158.8z"/>
	<path class="st105" d="M265.9,124.5c0.7,0,1.4,0,2.1-0.1c0.9,0.6,1.3,1.4,0.3,2.1C267.3,127.2,266.6,126.5,265.9,124.5z"/>
	<path class="st106" d="M239.2,123.7c1.5-1,3-1,4.5,0C242.2,123.6,240.7,123.7,239.2,123.7z"/>
	<path class="st107" d="M253.6,151.1c0-0.2,0-0.5,0-0.7c2.1-0.6,4.1-0.6,6.2,0c0,0.2,0,0.5,0,0.7
		C257.7,151.1,255.6,151.1,253.6,151.1z"/>
	<path class="st24" d="M259.8,150.4c-2.1,0-4.1,0-6.2,0c-2.7-0.5-5.6,0.7-8.3-0.8c7.6,0,15.2,0.1,22.7,0.1
		C265.4,151.1,262.5,150,259.8,150.4z"/>
</g>
</svg>
